<?xml version="1.0" encoding="utf-8" standalone="no"?>
<!DOCTYPE svg PUBLIC "-//W3C//DTD SVG 1.1//EN"
  "http://www.w3.org/Graphics/SVG/1.1/DTD/svg11.dtd">
<svg xmlns:xlink="http://www.w3.org/1999/xlink" width="664.209531pt" height="500.078594pt" viewBox="0 0 664.209531 500.078594" xmlns="http://www.w3.org/2000/svg" version="1.1">
 <metadata>
  <rdf:RDF xmlns:dc="http://purl.org/dc/elements/1.1/" xmlns:cc="http://creativecommons.org/ns#" xmlns:rdf="http://www.w3.org/1999/02/22-rdf-syntax-ns#">
   <cc:Work>
    <dc:type rdf:resource="http://purl.org/dc/dcmitype/StillImage"/>
    <dc:date>2022-04-28T14:14:03.572024</dc:date>
    <dc:format>image/svg+xml</dc:format>
    <dc:creator>
     <cc:Agent>
      <dc:title>Matplotlib v3.5.1, https://matplotlib.org/</dc:title>
     </cc:Agent>
    </dc:creator>
   </cc:Work>
  </rdf:RDF>
 </metadata>
 <defs>
  <style type="text/css">*{stroke-linejoin: round; stroke-linecap: butt}</style>
 </defs>
 <g id="figure_1">
  <g id="patch_1">
   <path d="M 0 500.078594 
L 664.209531 500.078594 
L 664.209531 0 
L 0 0 
z
" style="fill: #ffffff"/>
  </g>
  <g id="axes_1">
   <g id="patch_2">
    <path d="M 53.104766 331.431875 
L 611.104766 331.431875 
L 611.104766 59.631875 
L 53.104766 59.631875 
z
" style="fill: #eaeaf2"/>
   </g>
   <g id="matplotlib.axis_1">
    <g id="xtick_1">
     <g id="line2d_1">
      <path d="M 74.070084 331.431875 
L 74.070084 59.631875 
" clip-path="url(#pc30d87a2c9)" style="fill: none; stroke: #ffffff; stroke-linecap: round"/>
     </g>
     <g id="text_1">
      <!-- calibration-june.week4 -->
      <g style="fill: #262626" transform="translate(77.105396 466.282031)rotate(-90)scale(0.11 -0.11)">
       <defs>
        <path id="DejaVuSans-63" d="M 3122 3366 
L 3122 2828 
Q 2878 2963 2633 3030 
Q 2388 3097 2138 3097 
Q 1578 3097 1268 2742 
Q 959 2388 959 1747 
Q 959 1106 1268 751 
Q 1578 397 2138 397 
Q 2388 397 2633 464 
Q 2878 531 3122 666 
L 3122 134 
Q 2881 22 2623 -34 
Q 2366 -91 2075 -91 
Q 1284 -91 818 406 
Q 353 903 353 1747 
Q 353 2603 823 3093 
Q 1294 3584 2113 3584 
Q 2378 3584 2631 3529 
Q 2884 3475 3122 3366 
z
" transform="scale(0.015625)"/>
        <path id="DejaVuSans-61" d="M 2194 1759 
Q 1497 1759 1228 1600 
Q 959 1441 959 1056 
Q 959 750 1161 570 
Q 1363 391 1709 391 
Q 2188 391 2477 730 
Q 2766 1069 2766 1631 
L 2766 1759 
L 2194 1759 
z
M 3341 1997 
L 3341 0 
L 2766 0 
L 2766 531 
Q 2569 213 2275 61 
Q 1981 -91 1556 -91 
Q 1019 -91 701 211 
Q 384 513 384 1019 
Q 384 1609 779 1909 
Q 1175 2209 1959 2209 
L 2766 2209 
L 2766 2266 
Q 2766 2663 2505 2880 
Q 2244 3097 1772 3097 
Q 1472 3097 1187 3025 
Q 903 2953 641 2809 
L 641 3341 
Q 956 3463 1253 3523 
Q 1550 3584 1831 3584 
Q 2591 3584 2966 3190 
Q 3341 2797 3341 1997 
z
" transform="scale(0.015625)"/>
        <path id="DejaVuSans-6c" d="M 603 4863 
L 1178 4863 
L 1178 0 
L 603 0 
L 603 4863 
z
" transform="scale(0.015625)"/>
        <path id="DejaVuSans-69" d="M 603 3500 
L 1178 3500 
L 1178 0 
L 603 0 
L 603 3500 
z
M 603 4863 
L 1178 4863 
L 1178 4134 
L 603 4134 
L 603 4863 
z
" transform="scale(0.015625)"/>
        <path id="DejaVuSans-62" d="M 3116 1747 
Q 3116 2381 2855 2742 
Q 2594 3103 2138 3103 
Q 1681 3103 1420 2742 
Q 1159 2381 1159 1747 
Q 1159 1113 1420 752 
Q 1681 391 2138 391 
Q 2594 391 2855 752 
Q 3116 1113 3116 1747 
z
M 1159 2969 
Q 1341 3281 1617 3432 
Q 1894 3584 2278 3584 
Q 2916 3584 3314 3078 
Q 3713 2572 3713 1747 
Q 3713 922 3314 415 
Q 2916 -91 2278 -91 
Q 1894 -91 1617 61 
Q 1341 213 1159 525 
L 1159 0 
L 581 0 
L 581 4863 
L 1159 4863 
L 1159 2969 
z
" transform="scale(0.015625)"/>
        <path id="DejaVuSans-72" d="M 2631 2963 
Q 2534 3019 2420 3045 
Q 2306 3072 2169 3072 
Q 1681 3072 1420 2755 
Q 1159 2438 1159 1844 
L 1159 0 
L 581 0 
L 581 3500 
L 1159 3500 
L 1159 2956 
Q 1341 3275 1631 3429 
Q 1922 3584 2338 3584 
Q 2397 3584 2469 3576 
Q 2541 3569 2628 3553 
L 2631 2963 
z
" transform="scale(0.015625)"/>
        <path id="DejaVuSans-74" d="M 1172 4494 
L 1172 3500 
L 2356 3500 
L 2356 3053 
L 1172 3053 
L 1172 1153 
Q 1172 725 1289 603 
Q 1406 481 1766 481 
L 2356 481 
L 2356 0 
L 1766 0 
Q 1100 0 847 248 
Q 594 497 594 1153 
L 594 3053 
L 172 3053 
L 172 3500 
L 594 3500 
L 594 4494 
L 1172 4494 
z
" transform="scale(0.015625)"/>
        <path id="DejaVuSans-6f" d="M 1959 3097 
Q 1497 3097 1228 2736 
Q 959 2375 959 1747 
Q 959 1119 1226 758 
Q 1494 397 1959 397 
Q 2419 397 2687 759 
Q 2956 1122 2956 1747 
Q 2956 2369 2687 2733 
Q 2419 3097 1959 3097 
z
M 1959 3584 
Q 2709 3584 3137 3096 
Q 3566 2609 3566 1747 
Q 3566 888 3137 398 
Q 2709 -91 1959 -91 
Q 1206 -91 779 398 
Q 353 888 353 1747 
Q 353 2609 779 3096 
Q 1206 3584 1959 3584 
z
" transform="scale(0.015625)"/>
        <path id="DejaVuSans-6e" d="M 3513 2113 
L 3513 0 
L 2938 0 
L 2938 2094 
Q 2938 2591 2744 2837 
Q 2550 3084 2163 3084 
Q 1697 3084 1428 2787 
Q 1159 2491 1159 1978 
L 1159 0 
L 581 0 
L 581 3500 
L 1159 3500 
L 1159 2956 
Q 1366 3272 1645 3428 
Q 1925 3584 2291 3584 
Q 2894 3584 3203 3211 
Q 3513 2838 3513 2113 
z
" transform="scale(0.015625)"/>
        <path id="DejaVuSans-2d" d="M 313 2009 
L 1997 2009 
L 1997 1497 
L 313 1497 
L 313 2009 
z
" transform="scale(0.015625)"/>
        <path id="DejaVuSans-6a" d="M 603 3500 
L 1178 3500 
L 1178 -63 
Q 1178 -731 923 -1031 
Q 669 -1331 103 -1331 
L -116 -1331 
L -116 -844 
L 38 -844 
Q 366 -844 484 -692 
Q 603 -541 603 -63 
L 603 3500 
z
M 603 4863 
L 1178 4863 
L 1178 4134 
L 603 4134 
L 603 4863 
z
" transform="scale(0.015625)"/>
        <path id="DejaVuSans-75" d="M 544 1381 
L 544 3500 
L 1119 3500 
L 1119 1403 
Q 1119 906 1312 657 
Q 1506 409 1894 409 
Q 2359 409 2629 706 
Q 2900 1003 2900 1516 
L 2900 3500 
L 3475 3500 
L 3475 0 
L 2900 0 
L 2900 538 
Q 2691 219 2414 64 
Q 2138 -91 1772 -91 
Q 1169 -91 856 284 
Q 544 659 544 1381 
z
M 1991 3584 
L 1991 3584 
z
" transform="scale(0.015625)"/>
        <path id="DejaVuSans-65" d="M 3597 1894 
L 3597 1613 
L 953 1613 
Q 991 1019 1311 708 
Q 1631 397 2203 397 
Q 2534 397 2845 478 
Q 3156 559 3463 722 
L 3463 178 
Q 3153 47 2828 -22 
Q 2503 -91 2169 -91 
Q 1331 -91 842 396 
Q 353 884 353 1716 
Q 353 2575 817 3079 
Q 1281 3584 2069 3584 
Q 2775 3584 3186 3129 
Q 3597 2675 3597 1894 
z
M 3022 2063 
Q 3016 2534 2758 2815 
Q 2500 3097 2075 3097 
Q 1594 3097 1305 2825 
Q 1016 2553 972 2059 
L 3022 2063 
z
" transform="scale(0.015625)"/>
        <path id="DejaVuSans-2e" d="M 684 794 
L 1344 794 
L 1344 0 
L 684 0 
L 684 794 
z
" transform="scale(0.015625)"/>
        <path id="DejaVuSans-77" d="M 269 3500 
L 844 3500 
L 1563 769 
L 2278 3500 
L 2956 3500 
L 3675 769 
L 4391 3500 
L 4966 3500 
L 4050 0 
L 3372 0 
L 2619 2869 
L 1863 0 
L 1184 0 
L 269 3500 
z
" transform="scale(0.015625)"/>
        <path id="DejaVuSans-6b" d="M 581 4863 
L 1159 4863 
L 1159 1991 
L 2875 3500 
L 3609 3500 
L 1753 1863 
L 3688 0 
L 2938 0 
L 1159 1709 
L 1159 0 
L 581 0 
L 581 4863 
z
" transform="scale(0.015625)"/>
        <path id="DejaVuSans-34" d="M 2419 4116 
L 825 1625 
L 2419 1625 
L 2419 4116 
z
M 2253 4666 
L 3047 4666 
L 3047 1625 
L 3713 1625 
L 3713 1100 
L 3047 1100 
L 3047 0 
L 2419 0 
L 2419 1100 
L 313 1100 
L 313 1709 
L 2253 4666 
z
" transform="scale(0.015625)"/>
       </defs>
       <use xlink:href="#DejaVuSans-63"/>
       <use xlink:href="#DejaVuSans-61" x="54.980469"/>
       <use xlink:href="#DejaVuSans-6c" x="116.259766"/>
       <use xlink:href="#DejaVuSans-69" x="144.042969"/>
       <use xlink:href="#DejaVuSans-62" x="171.826172"/>
       <use xlink:href="#DejaVuSans-72" x="235.302734"/>
       <use xlink:href="#DejaVuSans-61" x="276.416016"/>
       <use xlink:href="#DejaVuSans-74" x="337.695312"/>
       <use xlink:href="#DejaVuSans-69" x="376.904297"/>
       <use xlink:href="#DejaVuSans-6f" x="404.6875"/>
       <use xlink:href="#DejaVuSans-6e" x="465.869141"/>
       <use xlink:href="#DejaVuSans-2d" x="529.248047"/>
       <use xlink:href="#DejaVuSans-6a" x="565.332031"/>
       <use xlink:href="#DejaVuSans-75" x="593.115234"/>
       <use xlink:href="#DejaVuSans-6e" x="656.494141"/>
       <use xlink:href="#DejaVuSans-65" x="719.873047"/>
       <use xlink:href="#DejaVuSans-2e" x="781.396484"/>
       <use xlink:href="#DejaVuSans-77" x="813.183594"/>
       <use xlink:href="#DejaVuSans-65" x="894.970703"/>
       <use xlink:href="#DejaVuSans-65" x="956.494141"/>
       <use xlink:href="#DejaVuSans-6b" x="1018.017578"/>
       <use xlink:href="#DejaVuSans-34" x="1075.927734"/>
      </g>
     </g>
    </g>
    <g id="xtick_2">
     <g id="line2d_2">
      <path d="M 106.324419 331.431875 
L 106.324419 59.631875 
" clip-path="url(#pc30d87a2c9)" style="fill: none; stroke: #ffffff; stroke-linecap: round"/>
     </g>
     <g id="text_2">
      <!-- calibration-march.week5 -->
      <g style="fill: #262626" transform="translate(109.359731 477.264844)rotate(-90)scale(0.11 -0.11)">
       <defs>
        <path id="DejaVuSans-6d" d="M 3328 2828 
Q 3544 3216 3844 3400 
Q 4144 3584 4550 3584 
Q 5097 3584 5394 3201 
Q 5691 2819 5691 2113 
L 5691 0 
L 5113 0 
L 5113 2094 
Q 5113 2597 4934 2840 
Q 4756 3084 4391 3084 
Q 3944 3084 3684 2787 
Q 3425 2491 3425 1978 
L 3425 0 
L 2847 0 
L 2847 2094 
Q 2847 2600 2669 2842 
Q 2491 3084 2119 3084 
Q 1678 3084 1418 2786 
Q 1159 2488 1159 1978 
L 1159 0 
L 581 0 
L 581 3500 
L 1159 3500 
L 1159 2956 
Q 1356 3278 1631 3431 
Q 1906 3584 2284 3584 
Q 2666 3584 2933 3390 
Q 3200 3197 3328 2828 
z
" transform="scale(0.015625)"/>
        <path id="DejaVuSans-68" d="M 3513 2113 
L 3513 0 
L 2938 0 
L 2938 2094 
Q 2938 2591 2744 2837 
Q 2550 3084 2163 3084 
Q 1697 3084 1428 2787 
Q 1159 2491 1159 1978 
L 1159 0 
L 581 0 
L 581 4863 
L 1159 4863 
L 1159 2956 
Q 1366 3272 1645 3428 
Q 1925 3584 2291 3584 
Q 2894 3584 3203 3211 
Q 3513 2838 3513 2113 
z
" transform="scale(0.015625)"/>
        <path id="DejaVuSans-35" d="M 691 4666 
L 3169 4666 
L 3169 4134 
L 1269 4134 
L 1269 2991 
Q 1406 3038 1543 3061 
Q 1681 3084 1819 3084 
Q 2600 3084 3056 2656 
Q 3513 2228 3513 1497 
Q 3513 744 3044 326 
Q 2575 -91 1722 -91 
Q 1428 -91 1123 -41 
Q 819 9 494 109 
L 494 744 
Q 775 591 1075 516 
Q 1375 441 1709 441 
Q 2250 441 2565 725 
Q 2881 1009 2881 1497 
Q 2881 1984 2565 2268 
Q 2250 2553 1709 2553 
Q 1456 2553 1204 2497 
Q 953 2441 691 2322 
L 691 4666 
z
" transform="scale(0.015625)"/>
       </defs>
       <use xlink:href="#DejaVuSans-63"/>
       <use xlink:href="#DejaVuSans-61" x="54.980469"/>
       <use xlink:href="#DejaVuSans-6c" x="116.259766"/>
       <use xlink:href="#DejaVuSans-69" x="144.042969"/>
       <use xlink:href="#DejaVuSans-62" x="171.826172"/>
       <use xlink:href="#DejaVuSans-72" x="235.302734"/>
       <use xlink:href="#DejaVuSans-61" x="276.416016"/>
       <use xlink:href="#DejaVuSans-74" x="337.695312"/>
       <use xlink:href="#DejaVuSans-69" x="376.904297"/>
       <use xlink:href="#DejaVuSans-6f" x="404.6875"/>
       <use xlink:href="#DejaVuSans-6e" x="465.869141"/>
       <use xlink:href="#DejaVuSans-2d" x="529.248047"/>
       <use xlink:href="#DejaVuSans-6d" x="565.332031"/>
       <use xlink:href="#DejaVuSans-61" x="662.744141"/>
       <use xlink:href="#DejaVuSans-72" x="724.023438"/>
       <use xlink:href="#DejaVuSans-63" x="762.886719"/>
       <use xlink:href="#DejaVuSans-68" x="817.867188"/>
       <use xlink:href="#DejaVuSans-2e" x="881.246094"/>
       <use xlink:href="#DejaVuSans-77" x="913.033203"/>
       <use xlink:href="#DejaVuSans-65" x="994.820312"/>
       <use xlink:href="#DejaVuSans-65" x="1056.34375"/>
       <use xlink:href="#DejaVuSans-6b" x="1117.867188"/>
       <use xlink:href="#DejaVuSans-35" x="1175.777344"/>
      </g>
     </g>
    </g>
    <g id="xtick_3">
     <g id="line2d_3">
      <path d="M 138.578754 331.431875 
L 138.578754 59.631875 
" clip-path="url(#pc30d87a2c9)" style="fill: none; stroke: #ffffff; stroke-linecap: round"/>
     </g>
     <g id="text_3">
      <!-- calibration-april.week4 -->
      <g style="fill: #262626" transform="translate(141.614067 466.873281)rotate(-90)scale(0.11 -0.11)">
       <defs>
        <path id="DejaVuSans-70" d="M 1159 525 
L 1159 -1331 
L 581 -1331 
L 581 3500 
L 1159 3500 
L 1159 2969 
Q 1341 3281 1617 3432 
Q 1894 3584 2278 3584 
Q 2916 3584 3314 3078 
Q 3713 2572 3713 1747 
Q 3713 922 3314 415 
Q 2916 -91 2278 -91 
Q 1894 -91 1617 61 
Q 1341 213 1159 525 
z
M 3116 1747 
Q 3116 2381 2855 2742 
Q 2594 3103 2138 3103 
Q 1681 3103 1420 2742 
Q 1159 2381 1159 1747 
Q 1159 1113 1420 752 
Q 1681 391 2138 391 
Q 2594 391 2855 752 
Q 3116 1113 3116 1747 
z
" transform="scale(0.015625)"/>
       </defs>
       <use xlink:href="#DejaVuSans-63"/>
       <use xlink:href="#DejaVuSans-61" x="54.980469"/>
       <use xlink:href="#DejaVuSans-6c" x="116.259766"/>
       <use xlink:href="#DejaVuSans-69" x="144.042969"/>
       <use xlink:href="#DejaVuSans-62" x="171.826172"/>
       <use xlink:href="#DejaVuSans-72" x="235.302734"/>
       <use xlink:href="#DejaVuSans-61" x="276.416016"/>
       <use xlink:href="#DejaVuSans-74" x="337.695312"/>
       <use xlink:href="#DejaVuSans-69" x="376.904297"/>
       <use xlink:href="#DejaVuSans-6f" x="404.6875"/>
       <use xlink:href="#DejaVuSans-6e" x="465.869141"/>
       <use xlink:href="#DejaVuSans-2d" x="529.248047"/>
       <use xlink:href="#DejaVuSans-61" x="565.332031"/>
       <use xlink:href="#DejaVuSans-70" x="626.611328"/>
       <use xlink:href="#DejaVuSans-72" x="690.087891"/>
       <use xlink:href="#DejaVuSans-69" x="731.201172"/>
       <use xlink:href="#DejaVuSans-6c" x="758.984375"/>
       <use xlink:href="#DejaVuSans-2e" x="786.767578"/>
       <use xlink:href="#DejaVuSans-77" x="818.554688"/>
       <use xlink:href="#DejaVuSans-65" x="900.341797"/>
       <use xlink:href="#DejaVuSans-65" x="961.865234"/>
       <use xlink:href="#DejaVuSans-6b" x="1023.388672"/>
       <use xlink:href="#DejaVuSans-34" x="1081.298828"/>
      </g>
     </g>
    </g>
    <g id="xtick_4">
     <g id="line2d_4">
      <path d="M 170.833089 331.431875 
L 170.833089 59.631875 
" clip-path="url(#pc30d87a2c9)" style="fill: none; stroke: #ffffff; stroke-linecap: round"/>
     </g>
     <g id="text_4">
      <!-- calibration-june.week3 -->
      <g style="fill: #262626" transform="translate(173.868402 466.282031)rotate(-90)scale(0.11 -0.11)">
       <defs>
        <path id="DejaVuSans-33" d="M 2597 2516 
Q 3050 2419 3304 2112 
Q 3559 1806 3559 1356 
Q 3559 666 3084 287 
Q 2609 -91 1734 -91 
Q 1441 -91 1130 -33 
Q 819 25 488 141 
L 488 750 
Q 750 597 1062 519 
Q 1375 441 1716 441 
Q 2309 441 2620 675 
Q 2931 909 2931 1356 
Q 2931 1769 2642 2001 
Q 2353 2234 1838 2234 
L 1294 2234 
L 1294 2753 
L 1863 2753 
Q 2328 2753 2575 2939 
Q 2822 3125 2822 3475 
Q 2822 3834 2567 4026 
Q 2313 4219 1838 4219 
Q 1578 4219 1281 4162 
Q 984 4106 628 3988 
L 628 4550 
Q 988 4650 1302 4700 
Q 1616 4750 1894 4750 
Q 2613 4750 3031 4423 
Q 3450 4097 3450 3541 
Q 3450 3153 3228 2886 
Q 3006 2619 2597 2516 
z
" transform="scale(0.015625)"/>
       </defs>
       <use xlink:href="#DejaVuSans-63"/>
       <use xlink:href="#DejaVuSans-61" x="54.980469"/>
       <use xlink:href="#DejaVuSans-6c" x="116.259766"/>
       <use xlink:href="#DejaVuSans-69" x="144.042969"/>
       <use xlink:href="#DejaVuSans-62" x="171.826172"/>
       <use xlink:href="#DejaVuSans-72" x="235.302734"/>
       <use xlink:href="#DejaVuSans-61" x="276.416016"/>
       <use xlink:href="#DejaVuSans-74" x="337.695312"/>
       <use xlink:href="#DejaVuSans-69" x="376.904297"/>
       <use xlink:href="#DejaVuSans-6f" x="404.6875"/>
       <use xlink:href="#DejaVuSans-6e" x="465.869141"/>
       <use xlink:href="#DejaVuSans-2d" x="529.248047"/>
       <use xlink:href="#DejaVuSans-6a" x="565.332031"/>
       <use xlink:href="#DejaVuSans-75" x="593.115234"/>
       <use xlink:href="#DejaVuSans-6e" x="656.494141"/>
       <use xlink:href="#DejaVuSans-65" x="719.873047"/>
       <use xlink:href="#DejaVuSans-2e" x="781.396484"/>
       <use xlink:href="#DejaVuSans-77" x="813.183594"/>
       <use xlink:href="#DejaVuSans-65" x="894.970703"/>
       <use xlink:href="#DejaVuSans-65" x="956.494141"/>
       <use xlink:href="#DejaVuSans-6b" x="1018.017578"/>
       <use xlink:href="#DejaVuSans-33" x="1075.927734"/>
      </g>
     </g>
    </g>
    <g id="xtick_5">
     <g id="line2d_5">
      <path d="M 203.087425 331.431875 
L 203.087425 59.631875 
" clip-path="url(#pc30d87a2c9)" style="fill: none; stroke: #ffffff; stroke-linecap: round"/>
     </g>
     <g id="text_5">
      <!-- calibration-may.week5 -->
      <g style="fill: #262626" transform="translate(206.122737 464.913906)rotate(-90)scale(0.11 -0.11)">
       <defs>
        <path id="DejaVuSans-79" d="M 2059 -325 
Q 1816 -950 1584 -1140 
Q 1353 -1331 966 -1331 
L 506 -1331 
L 506 -850 
L 844 -850 
Q 1081 -850 1212 -737 
Q 1344 -625 1503 -206 
L 1606 56 
L 191 3500 
L 800 3500 
L 1894 763 
L 2988 3500 
L 3597 3500 
L 2059 -325 
z
" transform="scale(0.015625)"/>
       </defs>
       <use xlink:href="#DejaVuSans-63"/>
       <use xlink:href="#DejaVuSans-61" x="54.980469"/>
       <use xlink:href="#DejaVuSans-6c" x="116.259766"/>
       <use xlink:href="#DejaVuSans-69" x="144.042969"/>
       <use xlink:href="#DejaVuSans-62" x="171.826172"/>
       <use xlink:href="#DejaVuSans-72" x="235.302734"/>
       <use xlink:href="#DejaVuSans-61" x="276.416016"/>
       <use xlink:href="#DejaVuSans-74" x="337.695312"/>
       <use xlink:href="#DejaVuSans-69" x="376.904297"/>
       <use xlink:href="#DejaVuSans-6f" x="404.6875"/>
       <use xlink:href="#DejaVuSans-6e" x="465.869141"/>
       <use xlink:href="#DejaVuSans-2d" x="529.248047"/>
       <use xlink:href="#DejaVuSans-6d" x="565.332031"/>
       <use xlink:href="#DejaVuSans-61" x="662.744141"/>
       <use xlink:href="#DejaVuSans-79" x="724.023438"/>
       <use xlink:href="#DejaVuSans-2e" x="768.953125"/>
       <use xlink:href="#DejaVuSans-77" x="800.740234"/>
       <use xlink:href="#DejaVuSans-65" x="882.527344"/>
       <use xlink:href="#DejaVuSans-65" x="944.050781"/>
       <use xlink:href="#DejaVuSans-6b" x="1005.574219"/>
       <use xlink:href="#DejaVuSans-35" x="1063.484375"/>
      </g>
     </g>
    </g>
    <g id="xtick_6">
     <g id="line2d_6">
      <path d="M 235.34176 331.431875 
L 235.34176 59.631875 
" clip-path="url(#pc30d87a2c9)" style="fill: none; stroke: #ffffff; stroke-linecap: round"/>
     </g>
     <g id="text_6">
      <!-- calibration-may.week1 -->
      <g style="fill: #262626" transform="translate(238.377072 464.913906)rotate(-90)scale(0.11 -0.11)">
       <defs>
        <path id="DejaVuSans-31" d="M 794 531 
L 1825 531 
L 1825 4091 
L 703 3866 
L 703 4441 
L 1819 4666 
L 2450 4666 
L 2450 531 
L 3481 531 
L 3481 0 
L 794 0 
L 794 531 
z
" transform="scale(0.015625)"/>
       </defs>
       <use xlink:href="#DejaVuSans-63"/>
       <use xlink:href="#DejaVuSans-61" x="54.980469"/>
       <use xlink:href="#DejaVuSans-6c" x="116.259766"/>
       <use xlink:href="#DejaVuSans-69" x="144.042969"/>
       <use xlink:href="#DejaVuSans-62" x="171.826172"/>
       <use xlink:href="#DejaVuSans-72" x="235.302734"/>
       <use xlink:href="#DejaVuSans-61" x="276.416016"/>
       <use xlink:href="#DejaVuSans-74" x="337.695312"/>
       <use xlink:href="#DejaVuSans-69" x="376.904297"/>
       <use xlink:href="#DejaVuSans-6f" x="404.6875"/>
       <use xlink:href="#DejaVuSans-6e" x="465.869141"/>
       <use xlink:href="#DejaVuSans-2d" x="529.248047"/>
       <use xlink:href="#DejaVuSans-6d" x="565.332031"/>
       <use xlink:href="#DejaVuSans-61" x="662.744141"/>
       <use xlink:href="#DejaVuSans-79" x="724.023438"/>
       <use xlink:href="#DejaVuSans-2e" x="768.953125"/>
       <use xlink:href="#DejaVuSans-77" x="800.740234"/>
       <use xlink:href="#DejaVuSans-65" x="882.527344"/>
       <use xlink:href="#DejaVuSans-65" x="944.050781"/>
       <use xlink:href="#DejaVuSans-6b" x="1005.574219"/>
       <use xlink:href="#DejaVuSans-31" x="1063.484375"/>
      </g>
     </g>
    </g>
    <g id="xtick_7">
     <g id="line2d_7">
      <path d="M 267.596095 331.431875 
L 267.596095 59.631875 
" clip-path="url(#pc30d87a2c9)" style="fill: none; stroke: #ffffff; stroke-linecap: round"/>
     </g>
     <g id="text_7">
      <!-- calibration-may.week4 -->
      <g style="fill: #262626" transform="translate(270.631408 464.913906)rotate(-90)scale(0.11 -0.11)">
       <use xlink:href="#DejaVuSans-63"/>
       <use xlink:href="#DejaVuSans-61" x="54.980469"/>
       <use xlink:href="#DejaVuSans-6c" x="116.259766"/>
       <use xlink:href="#DejaVuSans-69" x="144.042969"/>
       <use xlink:href="#DejaVuSans-62" x="171.826172"/>
       <use xlink:href="#DejaVuSans-72" x="235.302734"/>
       <use xlink:href="#DejaVuSans-61" x="276.416016"/>
       <use xlink:href="#DejaVuSans-74" x="337.695312"/>
       <use xlink:href="#DejaVuSans-69" x="376.904297"/>
       <use xlink:href="#DejaVuSans-6f" x="404.6875"/>
       <use xlink:href="#DejaVuSans-6e" x="465.869141"/>
       <use xlink:href="#DejaVuSans-2d" x="529.248047"/>
       <use xlink:href="#DejaVuSans-6d" x="565.332031"/>
       <use xlink:href="#DejaVuSans-61" x="662.744141"/>
       <use xlink:href="#DejaVuSans-79" x="724.023438"/>
       <use xlink:href="#DejaVuSans-2e" x="768.953125"/>
       <use xlink:href="#DejaVuSans-77" x="800.740234"/>
       <use xlink:href="#DejaVuSans-65" x="882.527344"/>
       <use xlink:href="#DejaVuSans-65" x="944.050781"/>
       <use xlink:href="#DejaVuSans-6b" x="1005.574219"/>
       <use xlink:href="#DejaVuSans-34" x="1063.484375"/>
      </g>
     </g>
    </g>
    <g id="xtick_8">
     <g id="line2d_8">
      <path d="M 299.85043 331.431875 
L 299.85043 59.631875 
" clip-path="url(#pc30d87a2c9)" style="fill: none; stroke: #ffffff; stroke-linecap: round"/>
     </g>
     <g id="text_8">
      <!-- calibration-march.week4 -->
      <g style="fill: #262626" transform="translate(302.885743 477.264844)rotate(-90)scale(0.11 -0.11)">
       <use xlink:href="#DejaVuSans-63"/>
       <use xlink:href="#DejaVuSans-61" x="54.980469"/>
       <use xlink:href="#DejaVuSans-6c" x="116.259766"/>
       <use xlink:href="#DejaVuSans-69" x="144.042969"/>
       <use xlink:href="#DejaVuSans-62" x="171.826172"/>
       <use xlink:href="#DejaVuSans-72" x="235.302734"/>
       <use xlink:href="#DejaVuSans-61" x="276.416016"/>
       <use xlink:href="#DejaVuSans-74" x="337.695312"/>
       <use xlink:href="#DejaVuSans-69" x="376.904297"/>
       <use xlink:href="#DejaVuSans-6f" x="404.6875"/>
       <use xlink:href="#DejaVuSans-6e" x="465.869141"/>
       <use xlink:href="#DejaVuSans-2d" x="529.248047"/>
       <use xlink:href="#DejaVuSans-6d" x="565.332031"/>
       <use xlink:href="#DejaVuSans-61" x="662.744141"/>
       <use xlink:href="#DejaVuSans-72" x="724.023438"/>
       <use xlink:href="#DejaVuSans-63" x="762.886719"/>
       <use xlink:href="#DejaVuSans-68" x="817.867188"/>
       <use xlink:href="#DejaVuSans-2e" x="881.246094"/>
       <use xlink:href="#DejaVuSans-77" x="913.033203"/>
       <use xlink:href="#DejaVuSans-65" x="994.820312"/>
       <use xlink:href="#DejaVuSans-65" x="1056.34375"/>
       <use xlink:href="#DejaVuSans-6b" x="1117.867188"/>
       <use xlink:href="#DejaVuSans-34" x="1175.777344"/>
      </g>
     </g>
    </g>
    <g id="xtick_9">
     <g id="line2d_9">
      <path d="M 332.104766 331.431875 
L 332.104766 59.631875 
" clip-path="url(#pc30d87a2c9)" style="fill: none; stroke: #ffffff; stroke-linecap: round"/>
     </g>
     <g id="text_9">
      <!-- calibration-march.week3 -->
      <g style="fill: #262626" transform="translate(335.140078 477.264844)rotate(-90)scale(0.11 -0.11)">
       <use xlink:href="#DejaVuSans-63"/>
       <use xlink:href="#DejaVuSans-61" x="54.980469"/>
       <use xlink:href="#DejaVuSans-6c" x="116.259766"/>
       <use xlink:href="#DejaVuSans-69" x="144.042969"/>
       <use xlink:href="#DejaVuSans-62" x="171.826172"/>
       <use xlink:href="#DejaVuSans-72" x="235.302734"/>
       <use xlink:href="#DejaVuSans-61" x="276.416016"/>
       <use xlink:href="#DejaVuSans-74" x="337.695312"/>
       <use xlink:href="#DejaVuSans-69" x="376.904297"/>
       <use xlink:href="#DejaVuSans-6f" x="404.6875"/>
       <use xlink:href="#DejaVuSans-6e" x="465.869141"/>
       <use xlink:href="#DejaVuSans-2d" x="529.248047"/>
       <use xlink:href="#DejaVuSans-6d" x="565.332031"/>
       <use xlink:href="#DejaVuSans-61" x="662.744141"/>
       <use xlink:href="#DejaVuSans-72" x="724.023438"/>
       <use xlink:href="#DejaVuSans-63" x="762.886719"/>
       <use xlink:href="#DejaVuSans-68" x="817.867188"/>
       <use xlink:href="#DejaVuSans-2e" x="881.246094"/>
       <use xlink:href="#DejaVuSans-77" x="913.033203"/>
       <use xlink:href="#DejaVuSans-65" x="994.820312"/>
       <use xlink:href="#DejaVuSans-65" x="1056.34375"/>
       <use xlink:href="#DejaVuSans-6b" x="1117.867188"/>
       <use xlink:href="#DejaVuSans-33" x="1175.777344"/>
      </g>
     </g>
    </g>
    <g id="xtick_10">
     <g id="line2d_10">
      <path d="M 364.359101 331.431875 
L 364.359101 59.631875 
" clip-path="url(#pc30d87a2c9)" style="fill: none; stroke: #ffffff; stroke-linecap: round"/>
     </g>
     <g id="text_10">
      <!-- calibration-may.week6 -->
      <g style="fill: #262626" transform="translate(367.394413 464.913906)rotate(-90)scale(0.11 -0.11)">
       <defs>
        <path id="DejaVuSans-36" d="M 2113 2584 
Q 1688 2584 1439 2293 
Q 1191 2003 1191 1497 
Q 1191 994 1439 701 
Q 1688 409 2113 409 
Q 2538 409 2786 701 
Q 3034 994 3034 1497 
Q 3034 2003 2786 2293 
Q 2538 2584 2113 2584 
z
M 3366 4563 
L 3366 3988 
Q 3128 4100 2886 4159 
Q 2644 4219 2406 4219 
Q 1781 4219 1451 3797 
Q 1122 3375 1075 2522 
Q 1259 2794 1537 2939 
Q 1816 3084 2150 3084 
Q 2853 3084 3261 2657 
Q 3669 2231 3669 1497 
Q 3669 778 3244 343 
Q 2819 -91 2113 -91 
Q 1303 -91 875 529 
Q 447 1150 447 2328 
Q 447 3434 972 4092 
Q 1497 4750 2381 4750 
Q 2619 4750 2861 4703 
Q 3103 4656 3366 4563 
z
" transform="scale(0.015625)"/>
       </defs>
       <use xlink:href="#DejaVuSans-63"/>
       <use xlink:href="#DejaVuSans-61" x="54.980469"/>
       <use xlink:href="#DejaVuSans-6c" x="116.259766"/>
       <use xlink:href="#DejaVuSans-69" x="144.042969"/>
       <use xlink:href="#DejaVuSans-62" x="171.826172"/>
       <use xlink:href="#DejaVuSans-72" x="235.302734"/>
       <use xlink:href="#DejaVuSans-61" x="276.416016"/>
       <use xlink:href="#DejaVuSans-74" x="337.695312"/>
       <use xlink:href="#DejaVuSans-69" x="376.904297"/>
       <use xlink:href="#DejaVuSans-6f" x="404.6875"/>
       <use xlink:href="#DejaVuSans-6e" x="465.869141"/>
       <use xlink:href="#DejaVuSans-2d" x="529.248047"/>
       <use xlink:href="#DejaVuSans-6d" x="565.332031"/>
       <use xlink:href="#DejaVuSans-61" x="662.744141"/>
       <use xlink:href="#DejaVuSans-79" x="724.023438"/>
       <use xlink:href="#DejaVuSans-2e" x="768.953125"/>
       <use xlink:href="#DejaVuSans-77" x="800.740234"/>
       <use xlink:href="#DejaVuSans-65" x="882.527344"/>
       <use xlink:href="#DejaVuSans-65" x="944.050781"/>
       <use xlink:href="#DejaVuSans-6b" x="1005.574219"/>
       <use xlink:href="#DejaVuSans-36" x="1063.484375"/>
      </g>
     </g>
    </g>
    <g id="xtick_11">
     <g id="line2d_11">
      <path d="M 396.613436 331.431875 
L 396.613436 59.631875 
" clip-path="url(#pc30d87a2c9)" style="fill: none; stroke: #ffffff; stroke-linecap: round"/>
     </g>
     <g id="text_11">
      <!-- calibration-april.week2 -->
      <g style="fill: #262626" transform="translate(399.648749 466.873281)rotate(-90)scale(0.11 -0.11)">
       <defs>
        <path id="DejaVuSans-32" d="M 1228 531 
L 3431 531 
L 3431 0 
L 469 0 
L 469 531 
Q 828 903 1448 1529 
Q 2069 2156 2228 2338 
Q 2531 2678 2651 2914 
Q 2772 3150 2772 3378 
Q 2772 3750 2511 3984 
Q 2250 4219 1831 4219 
Q 1534 4219 1204 4116 
Q 875 4013 500 3803 
L 500 4441 
Q 881 4594 1212 4672 
Q 1544 4750 1819 4750 
Q 2544 4750 2975 4387 
Q 3406 4025 3406 3419 
Q 3406 3131 3298 2873 
Q 3191 2616 2906 2266 
Q 2828 2175 2409 1742 
Q 1991 1309 1228 531 
z
" transform="scale(0.015625)"/>
       </defs>
       <use xlink:href="#DejaVuSans-63"/>
       <use xlink:href="#DejaVuSans-61" x="54.980469"/>
       <use xlink:href="#DejaVuSans-6c" x="116.259766"/>
       <use xlink:href="#DejaVuSans-69" x="144.042969"/>
       <use xlink:href="#DejaVuSans-62" x="171.826172"/>
       <use xlink:href="#DejaVuSans-72" x="235.302734"/>
       <use xlink:href="#DejaVuSans-61" x="276.416016"/>
       <use xlink:href="#DejaVuSans-74" x="337.695312"/>
       <use xlink:href="#DejaVuSans-69" x="376.904297"/>
       <use xlink:href="#DejaVuSans-6f" x="404.6875"/>
       <use xlink:href="#DejaVuSans-6e" x="465.869141"/>
       <use xlink:href="#DejaVuSans-2d" x="529.248047"/>
       <use xlink:href="#DejaVuSans-61" x="565.332031"/>
       <use xlink:href="#DejaVuSans-70" x="626.611328"/>
       <use xlink:href="#DejaVuSans-72" x="690.087891"/>
       <use xlink:href="#DejaVuSans-69" x="731.201172"/>
       <use xlink:href="#DejaVuSans-6c" x="758.984375"/>
       <use xlink:href="#DejaVuSans-2e" x="786.767578"/>
       <use xlink:href="#DejaVuSans-77" x="818.554688"/>
       <use xlink:href="#DejaVuSans-65" x="900.341797"/>
       <use xlink:href="#DejaVuSans-65" x="961.865234"/>
       <use xlink:href="#DejaVuSans-6b" x="1023.388672"/>
       <use xlink:href="#DejaVuSans-32" x="1081.298828"/>
      </g>
     </g>
    </g>
    <g id="xtick_12">
     <g id="line2d_12">
      <path d="M 428.867771 331.431875 
L 428.867771 59.631875 
" clip-path="url(#pc30d87a2c9)" style="fill: none; stroke: #ffffff; stroke-linecap: round"/>
     </g>
     <g id="text_12">
      <!-- calibration-april.week3 -->
      <g style="fill: #262626" transform="translate(431.903084 466.873281)rotate(-90)scale(0.11 -0.11)">
       <use xlink:href="#DejaVuSans-63"/>
       <use xlink:href="#DejaVuSans-61" x="54.980469"/>
       <use xlink:href="#DejaVuSans-6c" x="116.259766"/>
       <use xlink:href="#DejaVuSans-69" x="144.042969"/>
       <use xlink:href="#DejaVuSans-62" x="171.826172"/>
       <use xlink:href="#DejaVuSans-72" x="235.302734"/>
       <use xlink:href="#DejaVuSans-61" x="276.416016"/>
       <use xlink:href="#DejaVuSans-74" x="337.695312"/>
       <use xlink:href="#DejaVuSans-69" x="376.904297"/>
       <use xlink:href="#DejaVuSans-6f" x="404.6875"/>
       <use xlink:href="#DejaVuSans-6e" x="465.869141"/>
       <use xlink:href="#DejaVuSans-2d" x="529.248047"/>
       <use xlink:href="#DejaVuSans-61" x="565.332031"/>
       <use xlink:href="#DejaVuSans-70" x="626.611328"/>
       <use xlink:href="#DejaVuSans-72" x="690.087891"/>
       <use xlink:href="#DejaVuSans-69" x="731.201172"/>
       <use xlink:href="#DejaVuSans-6c" x="758.984375"/>
       <use xlink:href="#DejaVuSans-2e" x="786.767578"/>
       <use xlink:href="#DejaVuSans-77" x="818.554688"/>
       <use xlink:href="#DejaVuSans-65" x="900.341797"/>
       <use xlink:href="#DejaVuSans-65" x="961.865234"/>
       <use xlink:href="#DejaVuSans-6b" x="1023.388672"/>
       <use xlink:href="#DejaVuSans-33" x="1081.298828"/>
      </g>
     </g>
    </g>
    <g id="xtick_13">
     <g id="line2d_13">
      <path d="M 461.122107 331.431875 
L 461.122107 59.631875 
" clip-path="url(#pc30d87a2c9)" style="fill: none; stroke: #ffffff; stroke-linecap: round"/>
     </g>
     <g id="text_13">
      <!-- calibration-april.week5 -->
      <g style="fill: #262626" transform="translate(464.157419 466.873281)rotate(-90)scale(0.11 -0.11)">
       <use xlink:href="#DejaVuSans-63"/>
       <use xlink:href="#DejaVuSans-61" x="54.980469"/>
       <use xlink:href="#DejaVuSans-6c" x="116.259766"/>
       <use xlink:href="#DejaVuSans-69" x="144.042969"/>
       <use xlink:href="#DejaVuSans-62" x="171.826172"/>
       <use xlink:href="#DejaVuSans-72" x="235.302734"/>
       <use xlink:href="#DejaVuSans-61" x="276.416016"/>
       <use xlink:href="#DejaVuSans-74" x="337.695312"/>
       <use xlink:href="#DejaVuSans-69" x="376.904297"/>
       <use xlink:href="#DejaVuSans-6f" x="404.6875"/>
       <use xlink:href="#DejaVuSans-6e" x="465.869141"/>
       <use xlink:href="#DejaVuSans-2d" x="529.248047"/>
       <use xlink:href="#DejaVuSans-61" x="565.332031"/>
       <use xlink:href="#DejaVuSans-70" x="626.611328"/>
       <use xlink:href="#DejaVuSans-72" x="690.087891"/>
       <use xlink:href="#DejaVuSans-69" x="731.201172"/>
       <use xlink:href="#DejaVuSans-6c" x="758.984375"/>
       <use xlink:href="#DejaVuSans-2e" x="786.767578"/>
       <use xlink:href="#DejaVuSans-77" x="818.554688"/>
       <use xlink:href="#DejaVuSans-65" x="900.341797"/>
       <use xlink:href="#DejaVuSans-65" x="961.865234"/>
       <use xlink:href="#DejaVuSans-6b" x="1023.388672"/>
       <use xlink:href="#DejaVuSans-35" x="1081.298828"/>
      </g>
     </g>
    </g>
    <g id="xtick_14">
     <g id="line2d_14">
      <path d="M 493.376442 331.431875 
L 493.376442 59.631875 
" clip-path="url(#pc30d87a2c9)" style="fill: none; stroke: #ffffff; stroke-linecap: round"/>
     </g>
     <g id="text_14">
      <!-- calibration-june.week2 -->
      <g style="fill: #262626" transform="translate(496.411754 466.282031)rotate(-90)scale(0.11 -0.11)">
       <use xlink:href="#DejaVuSans-63"/>
       <use xlink:href="#DejaVuSans-61" x="54.980469"/>
       <use xlink:href="#DejaVuSans-6c" x="116.259766"/>
       <use xlink:href="#DejaVuSans-69" x="144.042969"/>
       <use xlink:href="#DejaVuSans-62" x="171.826172"/>
       <use xlink:href="#DejaVuSans-72" x="235.302734"/>
       <use xlink:href="#DejaVuSans-61" x="276.416016"/>
       <use xlink:href="#DejaVuSans-74" x="337.695312"/>
       <use xlink:href="#DejaVuSans-69" x="376.904297"/>
       <use xlink:href="#DejaVuSans-6f" x="404.6875"/>
       <use xlink:href="#DejaVuSans-6e" x="465.869141"/>
       <use xlink:href="#DejaVuSans-2d" x="529.248047"/>
       <use xlink:href="#DejaVuSans-6a" x="565.332031"/>
       <use xlink:href="#DejaVuSans-75" x="593.115234"/>
       <use xlink:href="#DejaVuSans-6e" x="656.494141"/>
       <use xlink:href="#DejaVuSans-65" x="719.873047"/>
       <use xlink:href="#DejaVuSans-2e" x="781.396484"/>
       <use xlink:href="#DejaVuSans-77" x="813.183594"/>
       <use xlink:href="#DejaVuSans-65" x="894.970703"/>
       <use xlink:href="#DejaVuSans-65" x="956.494141"/>
       <use xlink:href="#DejaVuSans-6b" x="1018.017578"/>
       <use xlink:href="#DejaVuSans-32" x="1075.927734"/>
      </g>
     </g>
    </g>
    <g id="xtick_15">
     <g id="line2d_15">
      <path d="M 525.630777 331.431875 
L 525.630777 59.631875 
" clip-path="url(#pc30d87a2c9)" style="fill: none; stroke: #ffffff; stroke-linecap: round"/>
     </g>
     <g id="text_15">
      <!-- calibration-june.week1 -->
      <g style="fill: #262626" transform="translate(528.66609 466.282031)rotate(-90)scale(0.11 -0.11)">
       <use xlink:href="#DejaVuSans-63"/>
       <use xlink:href="#DejaVuSans-61" x="54.980469"/>
       <use xlink:href="#DejaVuSans-6c" x="116.259766"/>
       <use xlink:href="#DejaVuSans-69" x="144.042969"/>
       <use xlink:href="#DejaVuSans-62" x="171.826172"/>
       <use xlink:href="#DejaVuSans-72" x="235.302734"/>
       <use xlink:href="#DejaVuSans-61" x="276.416016"/>
       <use xlink:href="#DejaVuSans-74" x="337.695312"/>
       <use xlink:href="#DejaVuSans-69" x="376.904297"/>
       <use xlink:href="#DejaVuSans-6f" x="404.6875"/>
       <use xlink:href="#DejaVuSans-6e" x="465.869141"/>
       <use xlink:href="#DejaVuSans-2d" x="529.248047"/>
       <use xlink:href="#DejaVuSans-6a" x="565.332031"/>
       <use xlink:href="#DejaVuSans-75" x="593.115234"/>
       <use xlink:href="#DejaVuSans-6e" x="656.494141"/>
       <use xlink:href="#DejaVuSans-65" x="719.873047"/>
       <use xlink:href="#DejaVuSans-2e" x="781.396484"/>
       <use xlink:href="#DejaVuSans-77" x="813.183594"/>
       <use xlink:href="#DejaVuSans-65" x="894.970703"/>
       <use xlink:href="#DejaVuSans-65" x="956.494141"/>
       <use xlink:href="#DejaVuSans-6b" x="1018.017578"/>
       <use xlink:href="#DejaVuSans-31" x="1075.927734"/>
      </g>
     </g>
    </g>
    <g id="xtick_16">
     <g id="line2d_16">
      <path d="M 557.885112 331.431875 
L 557.885112 59.631875 
" clip-path="url(#pc30d87a2c9)" style="fill: none; stroke: #ffffff; stroke-linecap: round"/>
     </g>
     <g id="text_16">
      <!-- calibration-may.week2 -->
      <g style="fill: #262626" transform="translate(560.920425 464.913906)rotate(-90)scale(0.11 -0.11)">
       <use xlink:href="#DejaVuSans-63"/>
       <use xlink:href="#DejaVuSans-61" x="54.980469"/>
       <use xlink:href="#DejaVuSans-6c" x="116.259766"/>
       <use xlink:href="#DejaVuSans-69" x="144.042969"/>
       <use xlink:href="#DejaVuSans-62" x="171.826172"/>
       <use xlink:href="#DejaVuSans-72" x="235.302734"/>
       <use xlink:href="#DejaVuSans-61" x="276.416016"/>
       <use xlink:href="#DejaVuSans-74" x="337.695312"/>
       <use xlink:href="#DejaVuSans-69" x="376.904297"/>
       <use xlink:href="#DejaVuSans-6f" x="404.6875"/>
       <use xlink:href="#DejaVuSans-6e" x="465.869141"/>
       <use xlink:href="#DejaVuSans-2d" x="529.248047"/>
       <use xlink:href="#DejaVuSans-6d" x="565.332031"/>
       <use xlink:href="#DejaVuSans-61" x="662.744141"/>
       <use xlink:href="#DejaVuSans-79" x="724.023438"/>
       <use xlink:href="#DejaVuSans-2e" x="768.953125"/>
       <use xlink:href="#DejaVuSans-77" x="800.740234"/>
       <use xlink:href="#DejaVuSans-65" x="882.527344"/>
       <use xlink:href="#DejaVuSans-65" x="944.050781"/>
       <use xlink:href="#DejaVuSans-6b" x="1005.574219"/>
       <use xlink:href="#DejaVuSans-32" x="1063.484375"/>
      </g>
     </g>
    </g>
    <g id="xtick_17">
     <g id="line2d_17">
      <path d="M 590.139448 331.431875 
L 590.139448 59.631875 
" clip-path="url(#pc30d87a2c9)" style="fill: none; stroke: #ffffff; stroke-linecap: round"/>
     </g>
     <g id="text_17">
      <!-- calibration-may.week3 -->
      <g style="fill: #262626" transform="translate(593.17476 464.913906)rotate(-90)scale(0.11 -0.11)">
       <use xlink:href="#DejaVuSans-63"/>
       <use xlink:href="#DejaVuSans-61" x="54.980469"/>
       <use xlink:href="#DejaVuSans-6c" x="116.259766"/>
       <use xlink:href="#DejaVuSans-69" x="144.042969"/>
       <use xlink:href="#DejaVuSans-62" x="171.826172"/>
       <use xlink:href="#DejaVuSans-72" x="235.302734"/>
       <use xlink:href="#DejaVuSans-61" x="276.416016"/>
       <use xlink:href="#DejaVuSans-74" x="337.695312"/>
       <use xlink:href="#DejaVuSans-69" x="376.904297"/>
       <use xlink:href="#DejaVuSans-6f" x="404.6875"/>
       <use xlink:href="#DejaVuSans-6e" x="465.869141"/>
       <use xlink:href="#DejaVuSans-2d" x="529.248047"/>
       <use xlink:href="#DejaVuSans-6d" x="565.332031"/>
       <use xlink:href="#DejaVuSans-61" x="662.744141"/>
       <use xlink:href="#DejaVuSans-79" x="724.023438"/>
       <use xlink:href="#DejaVuSans-2e" x="768.953125"/>
       <use xlink:href="#DejaVuSans-77" x="800.740234"/>
       <use xlink:href="#DejaVuSans-65" x="882.527344"/>
       <use xlink:href="#DejaVuSans-65" x="944.050781"/>
       <use xlink:href="#DejaVuSans-6b" x="1005.574219"/>
       <use xlink:href="#DejaVuSans-33" x="1063.484375"/>
      </g>
     </g>
    </g>
    <g id="text_18">
     <!-- mois/semaine -->
     <g style="fill: #262626" transform="translate(290.275391 490.382969)scale(0.12 -0.12)">
      <defs>
       <path id="DejaVuSans-73" d="M 2834 3397 
L 2834 2853 
Q 2591 2978 2328 3040 
Q 2066 3103 1784 3103 
Q 1356 3103 1142 2972 
Q 928 2841 928 2578 
Q 928 2378 1081 2264 
Q 1234 2150 1697 2047 
L 1894 2003 
Q 2506 1872 2764 1633 
Q 3022 1394 3022 966 
Q 3022 478 2636 193 
Q 2250 -91 1575 -91 
Q 1294 -91 989 -36 
Q 684 19 347 128 
L 347 722 
Q 666 556 975 473 
Q 1284 391 1588 391 
Q 1994 391 2212 530 
Q 2431 669 2431 922 
Q 2431 1156 2273 1281 
Q 2116 1406 1581 1522 
L 1381 1569 
Q 847 1681 609 1914 
Q 372 2147 372 2553 
Q 372 3047 722 3315 
Q 1072 3584 1716 3584 
Q 2034 3584 2315 3537 
Q 2597 3491 2834 3397 
z
" transform="scale(0.015625)"/>
       <path id="DejaVuSans-2f" d="M 1625 4666 
L 2156 4666 
L 531 -594 
L 0 -594 
L 1625 4666 
z
" transform="scale(0.015625)"/>
      </defs>
      <use xlink:href="#DejaVuSans-6d"/>
      <use xlink:href="#DejaVuSans-6f" x="97.412109"/>
      <use xlink:href="#DejaVuSans-69" x="158.59375"/>
      <use xlink:href="#DejaVuSans-73" x="186.376953"/>
      <use xlink:href="#DejaVuSans-2f" x="238.476562"/>
      <use xlink:href="#DejaVuSans-73" x="272.167969"/>
      <use xlink:href="#DejaVuSans-65" x="324.267578"/>
      <use xlink:href="#DejaVuSans-6d" x="385.791016"/>
      <use xlink:href="#DejaVuSans-61" x="483.203125"/>
      <use xlink:href="#DejaVuSans-69" x="544.482422"/>
      <use xlink:href="#DejaVuSans-6e" x="572.265625"/>
      <use xlink:href="#DejaVuSans-65" x="635.644531"/>
     </g>
    </g>
   </g>
   <g id="matplotlib.axis_2">
    <g id="ytick_1">
     <g id="line2d_18">
      <path d="M 53.104766 291.665719 
L 611.104766 291.665719 
" clip-path="url(#pc30d87a2c9)" style="fill: none; stroke: #ffffff; stroke-linecap: round"/>
     </g>
     <g id="text_19">
      <!-- $\mathdefault{10^{1}}$ -->
      <g style="fill: #262626" transform="translate(24.244766 295.844859)scale(0.11 -0.11)">
       <defs>
        <path id="DejaVuSans-30" d="M 2034 4250 
Q 1547 4250 1301 3770 
Q 1056 3291 1056 2328 
Q 1056 1369 1301 889 
Q 1547 409 2034 409 
Q 2525 409 2770 889 
Q 3016 1369 3016 2328 
Q 3016 3291 2770 3770 
Q 2525 4250 2034 4250 
z
M 2034 4750 
Q 2819 4750 3233 4129 
Q 3647 3509 3647 2328 
Q 3647 1150 3233 529 
Q 2819 -91 2034 -91 
Q 1250 -91 836 529 
Q 422 1150 422 2328 
Q 422 3509 836 4129 
Q 1250 4750 2034 4750 
z
" transform="scale(0.015625)"/>
       </defs>
       <use xlink:href="#DejaVuSans-31" transform="translate(0 0.684375)"/>
       <use xlink:href="#DejaVuSans-30" transform="translate(63.623047 0.684375)"/>
       <use xlink:href="#DejaVuSans-31" transform="translate(128.203125 38.965625)scale(0.7)"/>
      </g>
     </g>
    </g>
    <g id="ytick_2">
     <g id="line2d_19">
      <path d="M 53.104766 236.842497 
L 611.104766 236.842497 
" clip-path="url(#pc30d87a2c9)" style="fill: none; stroke: #ffffff; stroke-linecap: round"/>
     </g>
     <g id="text_20">
      <!-- $\mathdefault{10^{3}}$ -->
      <g style="fill: #262626" transform="translate(24.244766 241.021638)scale(0.11 -0.11)">
       <use xlink:href="#DejaVuSans-31" transform="translate(0 0.765625)"/>
       <use xlink:href="#DejaVuSans-30" transform="translate(63.623047 0.765625)"/>
       <use xlink:href="#DejaVuSans-33" transform="translate(128.203125 39.046875)scale(0.7)"/>
      </g>
     </g>
    </g>
    <g id="ytick_3">
     <g id="line2d_20">
      <path d="M 53.104766 182.019276 
L 611.104766 182.019276 
" clip-path="url(#pc30d87a2c9)" style="fill: none; stroke: #ffffff; stroke-linecap: round"/>
     </g>
     <g id="text_21">
      <!-- $\mathdefault{10^{5}}$ -->
      <g style="fill: #262626" transform="translate(24.244766 186.198417)scale(0.11 -0.11)">
       <use xlink:href="#DejaVuSans-31" transform="translate(0 0.684375)"/>
       <use xlink:href="#DejaVuSans-30" transform="translate(63.623047 0.684375)"/>
       <use xlink:href="#DejaVuSans-35" transform="translate(128.203125 38.965625)scale(0.7)"/>
      </g>
     </g>
    </g>
    <g id="ytick_4">
     <g id="line2d_21">
      <path d="M 53.104766 127.196055 
L 611.104766 127.196055 
" clip-path="url(#pc30d87a2c9)" style="fill: none; stroke: #ffffff; stroke-linecap: round"/>
     </g>
     <g id="text_22">
      <!-- $\mathdefault{10^{7}}$ -->
      <g style="fill: #262626" transform="translate(24.244766 131.375195)scale(0.11 -0.11)">
       <defs>
        <path id="DejaVuSans-37" d="M 525 4666 
L 3525 4666 
L 3525 4397 
L 1831 0 
L 1172 0 
L 2766 4134 
L 525 4134 
L 525 4666 
z
" transform="scale(0.015625)"/>
       </defs>
       <use xlink:href="#DejaVuSans-31" transform="translate(0 0.684375)"/>
       <use xlink:href="#DejaVuSans-30" transform="translate(63.623047 0.684375)"/>
       <use xlink:href="#DejaVuSans-37" transform="translate(128.203125 38.965625)scale(0.7)"/>
      </g>
     </g>
    </g>
    <g id="ytick_5">
     <g id="line2d_22">
      <path d="M 53.104766 72.372833 
L 611.104766 72.372833 
" clip-path="url(#pc30d87a2c9)" style="fill: none; stroke: #ffffff; stroke-linecap: round"/>
     </g>
     <g id="text_23">
      <!-- $\mathdefault{10^{9}}$ -->
      <g style="fill: #262626" transform="translate(24.244766 76.551974)scale(0.11 -0.11)">
       <defs>
        <path id="DejaVuSans-39" d="M 703 97 
L 703 672 
Q 941 559 1184 500 
Q 1428 441 1663 441 
Q 2288 441 2617 861 
Q 2947 1281 2994 2138 
Q 2813 1869 2534 1725 
Q 2256 1581 1919 1581 
Q 1219 1581 811 2004 
Q 403 2428 403 3163 
Q 403 3881 828 4315 
Q 1253 4750 1959 4750 
Q 2769 4750 3195 4129 
Q 3622 3509 3622 2328 
Q 3622 1225 3098 567 
Q 2575 -91 1691 -91 
Q 1453 -91 1209 -44 
Q 966 3 703 97 
z
M 1959 2075 
Q 2384 2075 2632 2365 
Q 2881 2656 2881 3163 
Q 2881 3666 2632 3958 
Q 2384 4250 1959 4250 
Q 1534 4250 1286 3958 
Q 1038 3666 1038 3163 
Q 1038 2656 1286 2365 
Q 1534 2075 1959 2075 
z
" transform="scale(0.015625)"/>
       </defs>
       <use xlink:href="#DejaVuSans-31" transform="translate(0 0.765625)"/>
       <use xlink:href="#DejaVuSans-30" transform="translate(63.623047 0.765625)"/>
       <use xlink:href="#DejaVuSans-39" transform="translate(128.203125 39.046875)scale(0.7)"/>
      </g>
     </g>
    </g>
    <g id="text_24">
     <!-- Nombre d'exemples -->
     <g style="fill: #262626" transform="translate(17.749141 255.514063)rotate(-90)scale(0.12 -0.12)">
      <defs>
       <path id="DejaVuSans-4e" d="M 628 4666 
L 1478 4666 
L 3547 763 
L 3547 4666 
L 4159 4666 
L 4159 0 
L 3309 0 
L 1241 3903 
L 1241 0 
L 628 0 
L 628 4666 
z
" transform="scale(0.015625)"/>
       <path id="DejaVuSans-20" transform="scale(0.015625)"/>
       <path id="DejaVuSans-64" d="M 2906 2969 
L 2906 4863 
L 3481 4863 
L 3481 0 
L 2906 0 
L 2906 525 
Q 2725 213 2448 61 
Q 2172 -91 1784 -91 
Q 1150 -91 751 415 
Q 353 922 353 1747 
Q 353 2572 751 3078 
Q 1150 3584 1784 3584 
Q 2172 3584 2448 3432 
Q 2725 3281 2906 2969 
z
M 947 1747 
Q 947 1113 1208 752 
Q 1469 391 1925 391 
Q 2381 391 2643 752 
Q 2906 1113 2906 1747 
Q 2906 2381 2643 2742 
Q 2381 3103 1925 3103 
Q 1469 3103 1208 2742 
Q 947 2381 947 1747 
z
" transform="scale(0.015625)"/>
       <path id="DejaVuSans-27" d="M 1147 4666 
L 1147 2931 
L 616 2931 
L 616 4666 
L 1147 4666 
z
" transform="scale(0.015625)"/>
       <path id="DejaVuSans-78" d="M 3513 3500 
L 2247 1797 
L 3578 0 
L 2900 0 
L 1881 1375 
L 863 0 
L 184 0 
L 1544 1831 
L 300 3500 
L 978 3500 
L 1906 2253 
L 2834 3500 
L 3513 3500 
z
" transform="scale(0.015625)"/>
      </defs>
      <use xlink:href="#DejaVuSans-4e"/>
      <use xlink:href="#DejaVuSans-6f" x="74.804688"/>
      <use xlink:href="#DejaVuSans-6d" x="135.986328"/>
      <use xlink:href="#DejaVuSans-62" x="233.398438"/>
      <use xlink:href="#DejaVuSans-72" x="296.875"/>
      <use xlink:href="#DejaVuSans-65" x="335.738281"/>
      <use xlink:href="#DejaVuSans-20" x="397.261719"/>
      <use xlink:href="#DejaVuSans-64" x="429.048828"/>
      <use xlink:href="#DejaVuSans-27" x="492.525391"/>
      <use xlink:href="#DejaVuSans-65" x="520.015625"/>
      <use xlink:href="#DejaVuSans-78" x="579.789062"/>
      <use xlink:href="#DejaVuSans-65" x="635.84375"/>
      <use xlink:href="#DejaVuSans-6d" x="697.367188"/>
      <use xlink:href="#DejaVuSans-70" x="794.779297"/>
      <use xlink:href="#DejaVuSans-6c" x="858.255859"/>
      <use xlink:href="#DejaVuSans-65" x="886.039062"/>
      <use xlink:href="#DejaVuSans-73" x="947.5625"/>
     </g>
    </g>
   </g>
   <g id="patch_3">
    <path d="M 61.168349 27730.688028 
L 66.329043 27730.688028 
L 66.329043 319.07733 
L 61.168349 319.07733 
z
" clip-path="url(#pc30d87a2c9)" style="fill: #0173b2; stroke: #ffffff; stroke-linejoin: miter"/>
   </g>
   <g id="patch_4">
    <path d="M 93.422685 27730.688028 
L 98.583378 27730.688028 
L 98.583378 319.07733 
L 93.422685 319.07733 
z
" clip-path="url(#pc30d87a2c9)" style="fill: #0173b2; stroke: #ffffff; stroke-linejoin: miter"/>
   </g>
   <g id="patch_5">
    <path d="M 125.67702 27730.688028 
L 130.837714 27730.688028 
L 130.837714 297.74695 
L 125.67702 297.74695 
z
" clip-path="url(#pc30d87a2c9)" style="fill: #0173b2; stroke: #ffffff; stroke-linejoin: miter"/>
   </g>
   <g id="patch_6">
    <path d="M 157.931355 27730.688028 
L 163.092049 27730.688028 
L 163.092049 319.07733 
L 157.931355 319.07733 
z
" clip-path="url(#pc30d87a2c9)" style="fill: #0173b2; stroke: #ffffff; stroke-linejoin: miter"/>
   </g>
   <g id="patch_7">
    <path d="M 190.18569 27730.688028 
L 195.346384 27730.688028 
L 195.346384 319.07733 
L 190.18569 319.07733 
z
" clip-path="url(#pc30d87a2c9)" style="fill: #0173b2; stroke: #ffffff; stroke-linejoin: miter"/>
   </g>
   <g id="patch_8">
    <path d="M 222.440026 27730.688028 
L 227.600719 27730.688028 
L 227.600719 319.07733 
L 222.440026 319.07733 
z
" clip-path="url(#pc30d87a2c9)" style="fill: #0173b2; stroke: #ffffff; stroke-linejoin: miter"/>
   </g>
   <g id="patch_9">
    <path d="M 254.694361 27730.688028 
L 259.855055 27730.688028 
L 259.855055 319.07733 
L 254.694361 319.07733 
z
" clip-path="url(#pc30d87a2c9)" style="fill: #0173b2; stroke: #ffffff; stroke-linejoin: miter"/>
   </g>
   <g id="patch_10">
    <path d="M 286.948696 27730.688028 
L 292.10939 27730.688028 
L 292.10939 319.07733 
L 286.948696 319.07733 
z
" clip-path="url(#pc30d87a2c9)" style="fill: #0173b2; stroke: #ffffff; stroke-linejoin: miter"/>
   </g>
   <g id="patch_11">
    <path d="M 319.203032 27730.688028 
L 324.363725 27730.688028 
L 324.363725 319.07733 
L 319.203032 319.07733 
z
" clip-path="url(#pc30d87a2c9)" style="fill: #0173b2; stroke: #ffffff; stroke-linejoin: miter"/>
   </g>
   <g id="patch_12">
    <path d="M 351.457367 27730.688028 
L 356.61806 27730.688028 
L 356.61806 319.07733 
L 351.457367 319.07733 
z
" clip-path="url(#pc30d87a2c9)" style="fill: #0173b2; stroke: #ffffff; stroke-linejoin: miter"/>
   </g>
   <g id="patch_13">
    <path d="M 383.711702 27730.688028 
L 388.872396 27730.688028 
L 388.872396 319.07733 
L 383.711702 319.07733 
z
" clip-path="url(#pc30d87a2c9)" style="fill: #0173b2; stroke: #ffffff; stroke-linejoin: miter"/>
   </g>
   <g id="patch_14">
    <path d="M 415.966037 27730.688028 
L 421.126731 27730.688028 
L 421.126731 305.998667 
L 415.966037 305.998667 
z
" clip-path="url(#pc30d87a2c9)" style="fill: #0173b2; stroke: #ffffff; stroke-linejoin: miter"/>
   </g>
   <g id="patch_15">
    <path d="M 448.220373 27730.688028 
L 453.381066 27730.688028 
L 453.381066 319.07733 
L 448.220373 319.07733 
z
" clip-path="url(#pc30d87a2c9)" style="fill: #0173b2; stroke: #ffffff; stroke-linejoin: miter"/>
   </g>
   <g id="patch_16">
    <path d="M 480.474708 27730.688028 
L 485.635401 27730.688028 
L 485.635401 319.07733 
L 480.474708 319.07733 
z
" clip-path="url(#pc30d87a2c9)" style="fill: #0173b2; stroke: #ffffff; stroke-linejoin: miter"/>
   </g>
   <g id="patch_17">
    <path d="M 512.729043 27730.688028 
L 517.889737 27730.688028 
L 517.889737 319.07733 
L 512.729043 319.07733 
z
" clip-path="url(#pc30d87a2c9)" style="fill: #0173b2; stroke: #ffffff; stroke-linejoin: miter"/>
   </g>
   <g id="patch_18">
    <path d="M 544.983378 27730.688028 
L 550.144072 27730.688028 
L 550.144072 305.998667 
L 544.983378 305.998667 
z
" clip-path="url(#pc30d87a2c9)" style="fill: #0173b2; stroke: #ffffff; stroke-linejoin: miter"/>
   </g>
   <g id="patch_19">
    <path d="M 577.237714 27730.688028 
L 582.398407 27730.688028 
L 582.398407 310.825612 
L 577.237714 310.825612 
z
" clip-path="url(#pc30d87a2c9)" style="fill: #0173b2; stroke: #ffffff; stroke-linejoin: miter"/>
   </g>
   <g id="patch_20">
    <path d="M 66.329043 27730.688028 
L 71.489737 27730.688028 
L 71.489737 74.403294 
L 66.329043 74.403294 
z
" clip-path="url(#pc30d87a2c9)" style="fill: #de8f05; stroke: #ffffff; stroke-linejoin: miter"/>
   </g>
   <g id="patch_21">
    <path d="M 98.583378 27730.688028 
L 103.744072 27730.688028 
L 103.744072 78.913261 
L 98.583378 78.913261 
z
" clip-path="url(#pc30d87a2c9)" style="fill: #de8f05; stroke: #ffffff; stroke-linejoin: miter"/>
   </g>
   <g id="patch_22">
    <path d="M 130.837714 27730.688028 
L 135.998407 27730.688028 
L 135.998407 72.502364 
L 130.837714 72.502364 
z
" clip-path="url(#pc30d87a2c9)" style="fill: #de8f05; stroke: #ffffff; stroke-linejoin: miter"/>
   </g>
   <g id="patch_23">
    <path d="M 163.092049 27730.688028 
L 168.252743 27730.688028 
L 168.252743 73.79362 
L 163.092049 73.79362 
z
" clip-path="url(#pc30d87a2c9)" style="fill: #de8f05; stroke: #ffffff; stroke-linejoin: miter"/>
   </g>
   <g id="patch_24">
    <path d="M 195.346384 27730.688028 
L 200.507078 27730.688028 
L 200.507078 72.41128 
L 195.346384 72.41128 
z
" clip-path="url(#pc30d87a2c9)" style="fill: #de8f05; stroke: #ffffff; stroke-linejoin: miter"/>
   </g>
   <g id="patch_25">
    <path d="M 227.600719 27730.688028 
L 232.761413 27730.688028 
L 232.761413 97.217896 
L 227.600719 97.217896 
z
" clip-path="url(#pc30d87a2c9)" style="fill: #de8f05; stroke: #ffffff; stroke-linejoin: miter"/>
   </g>
   <g id="patch_26">
    <path d="M 259.855055 27730.688028 
L 265.015748 27730.688028 
L 265.015748 71.98642 
L 259.855055 71.98642 
z
" clip-path="url(#pc30d87a2c9)" style="fill: #de8f05; stroke: #ffffff; stroke-linejoin: miter"/>
   </g>
   <g id="patch_27">
    <path d="M 292.10939 27730.688028 
L 297.270084 27730.688028 
L 297.270084 74.24327 
L 292.10939 74.24327 
z
" clip-path="url(#pc30d87a2c9)" style="fill: #de8f05; stroke: #ffffff; stroke-linejoin: miter"/>
   </g>
   <g id="patch_28">
    <path d="M 324.363725 27730.688028 
L 329.524419 27730.688028 
L 329.524419 89.42671 
L 324.363725 89.42671 
z
" clip-path="url(#pc30d87a2c9)" style="fill: #de8f05; stroke: #ffffff; stroke-linejoin: miter"/>
   </g>
   <g id="patch_29">
    <path d="M 356.61806 27730.688028 
L 361.778754 27730.688028 
L 361.778754 86.86069 
L 356.61806 86.86069 
z
" clip-path="url(#pc30d87a2c9)" style="fill: #de8f05; stroke: #ffffff; stroke-linejoin: miter"/>
   </g>
   <g id="patch_30">
    <path d="M 388.872396 27730.688028 
L 394.033089 27730.688028 
L 394.033089 79.331578 
L 388.872396 79.331578 
z
" clip-path="url(#pc30d87a2c9)" style="fill: #de8f05; stroke: #ffffff; stroke-linejoin: miter"/>
   </g>
   <g id="patch_31">
    <path d="M 421.126731 27730.688028 
L 426.287425 27730.688028 
L 426.287425 72.011673 
L 421.126731 72.011673 
z
" clip-path="url(#pc30d87a2c9)" style="fill: #de8f05; stroke: #ffffff; stroke-linejoin: miter"/>
   </g>
   <g id="patch_32">
    <path d="M 453.381066 27730.688028 
L 458.54176 27730.688028 
L 458.54176 74.623123 
L 453.381066 74.623123 
z
" clip-path="url(#pc30d87a2c9)" style="fill: #de8f05; stroke: #ffffff; stroke-linejoin: miter"/>
   </g>
   <g id="patch_33">
    <path d="M 485.635401 27730.688028 
L 490.796095 27730.688028 
L 490.796095 72.536674 
L 485.635401 72.536674 
z
" clip-path="url(#pc30d87a2c9)" style="fill: #de8f05; stroke: #ffffff; stroke-linejoin: miter"/>
   </g>
   <g id="patch_34">
    <path d="M 517.889737 27730.688028 
L 523.05043 27730.688028 
L 523.05043 77.006779 
L 517.889737 77.006779 
z
" clip-path="url(#pc30d87a2c9)" style="fill: #de8f05; stroke: #ffffff; stroke-linejoin: miter"/>
   </g>
   <g id="patch_35">
    <path d="M 550.144072 27730.688028 
L 555.304766 27730.688028 
L 555.304766 72.828527 
L 550.144072 72.828527 
z
" clip-path="url(#pc30d87a2c9)" style="fill: #de8f05; stroke: #ffffff; stroke-linejoin: miter"/>
   </g>
   <g id="patch_36">
    <path d="M 582.398407 27730.688028 
L 587.559101 27730.688028 
L 587.559101 72.73207 
L 582.398407 72.73207 
z
" clip-path="url(#pc30d87a2c9)" style="fill: #de8f05; stroke: #ffffff; stroke-linejoin: miter"/>
   </g>
   <g id="patch_37">
    <path d="M 71.489737 27730.688028 
L 76.65043 27730.688028 
L 76.65043 119.382556 
L 71.489737 119.382556 
z
" clip-path="url(#pc30d87a2c9)" style="fill: #029e73; stroke: #ffffff; stroke-linejoin: miter"/>
   </g>
   <g id="patch_38">
    <path d="M 103.744072 27730.688028 
L 108.904766 27730.688028 
L 108.904766 147.760852 
L 103.744072 147.760852 
z
" clip-path="url(#pc30d87a2c9)" style="fill: #029e73; stroke: #ffffff; stroke-linejoin: miter"/>
   </g>
   <g id="patch_39">
    <path d="M 135.998407 27730.688028 
L 141.159101 27730.688028 
L 141.159101 139.234906 
L 135.998407 139.234906 
z
" clip-path="url(#pc30d87a2c9)" style="fill: #029e73; stroke: #ffffff; stroke-linejoin: miter"/>
   </g>
   <g id="patch_40">
    <path d="M 168.252743 27730.688028 
L 173.413436 27730.688028 
L 173.413436 121.152099 
L 168.252743 121.152099 
z
" clip-path="url(#pc30d87a2c9)" style="fill: #029e73; stroke: #ffffff; stroke-linejoin: miter"/>
   </g>
   <g id="patch_41">
    <path d="M 200.507078 27730.688028 
L 205.667771 27730.688028 
L 205.667771 142.449209 
L 200.507078 142.449209 
z
" clip-path="url(#pc30d87a2c9)" style="fill: #029e73; stroke: #ffffff; stroke-linejoin: miter"/>
   </g>
   <g id="patch_42">
    <path d="M 232.761413 27730.688028 
L 237.922107 27730.688028 
L 237.922107 163.950716 
L 232.761413 163.950716 
z
" clip-path="url(#pc30d87a2c9)" style="fill: #029e73; stroke: #ffffff; stroke-linejoin: miter"/>
   </g>
   <g id="patch_43">
    <path d="M 265.015748 27730.688028 
L 270.176442 27730.688028 
L 270.176442 140.358904 
L 265.015748 140.358904 
z
" clip-path="url(#pc30d87a2c9)" style="fill: #029e73; stroke: #ffffff; stroke-linejoin: miter"/>
   </g>
   <g id="patch_44">
    <path d="M 297.270084 27730.688028 
L 302.430777 27730.688028 
L 302.430777 143.13567 
L 297.270084 143.13567 
z
" clip-path="url(#pc30d87a2c9)" style="fill: #029e73; stroke: #ffffff; stroke-linejoin: miter"/>
   </g>
   <g id="patch_45">
    <path d="M 329.524419 27730.688028 
L 334.685112 27730.688028 
L 334.685112 153.197855 
L 329.524419 153.197855 
z
" clip-path="url(#pc30d87a2c9)" style="fill: #029e73; stroke: #ffffff; stroke-linejoin: miter"/>
   </g>
   <g id="patch_46">
    <path d="M 361.778754 27730.688028 
L 366.939448 27730.688028 
L 366.939448 156.427792 
L 361.778754 156.427792 
z
" clip-path="url(#pc30d87a2c9)" style="fill: #029e73; stroke: #ffffff; stroke-linejoin: miter"/>
   </g>
   <g id="patch_47">
    <path d="M 394.033089 27730.688028 
L 399.193783 27730.688028 
L 399.193783 148.04212 
L 394.033089 148.04212 
z
" clip-path="url(#pc30d87a2c9)" style="fill: #029e73; stroke: #ffffff; stroke-linejoin: miter"/>
   </g>
   <g id="patch_48">
    <path d="M 426.287425 27730.688028 
L 431.448118 27730.688028 
L 431.448118 141.466647 
L 426.287425 141.466647 
z
" clip-path="url(#pc30d87a2c9)" style="fill: #029e73; stroke: #ffffff; stroke-linejoin: miter"/>
   </g>
   <g id="patch_49">
    <path d="M 458.54176 27730.688028 
L 463.702453 27730.688028 
L 463.702453 142.310466 
L 458.54176 142.310466 
z
" clip-path="url(#pc30d87a2c9)" style="fill: #029e73; stroke: #ffffff; stroke-linejoin: miter"/>
   </g>
   <g id="patch_50">
    <path d="M 490.796095 27730.688028 
L 495.956789 27730.688028 
L 495.956789 128.736969 
L 490.796095 128.736969 
z
" clip-path="url(#pc30d87a2c9)" style="fill: #029e73; stroke: #ffffff; stroke-linejoin: miter"/>
   </g>
   <g id="patch_51">
    <path d="M 523.05043 27730.688028 
L 528.211124 27730.688028 
L 528.211124 139.568079 
L 523.05043 139.568079 
z
" clip-path="url(#pc30d87a2c9)" style="fill: #029e73; stroke: #ffffff; stroke-linejoin: miter"/>
   </g>
   <g id="patch_52">
    <path d="M 555.304766 27730.688028 
L 560.465459 27730.688028 
L 560.465459 137.521066 
L 555.304766 137.521066 
z
" clip-path="url(#pc30d87a2c9)" style="fill: #029e73; stroke: #ffffff; stroke-linejoin: miter"/>
   </g>
   <g id="patch_53">
    <path d="M 587.559101 27730.688028 
L 592.719795 27730.688028 
L 592.719795 138.609709 
L 587.559101 138.609709 
z
" clip-path="url(#pc30d87a2c9)" style="fill: #029e73; stroke: #ffffff; stroke-linejoin: miter"/>
   </g>
   <g id="patch_54">
    <path d="M 76.65043 27730.688028 
L 81.811124 27730.688028 
L 81.811124 278.196703 
L 76.65043 278.196703 
z
" clip-path="url(#pc30d87a2c9)" style="fill: #d55e00; stroke: #ffffff; stroke-linejoin: miter"/>
   </g>
   <g id="patch_55">
    <path d="M 108.904766 27730.688028 
L 114.065459 27730.688028 
L 114.065459 288.542348 
L 108.904766 288.542348 
z
" clip-path="url(#pc30d87a2c9)" style="fill: #d55e00; stroke: #ffffff; stroke-linejoin: miter"/>
   </g>
   <g id="patch_56">
    <path d="M 141.159101 27730.688028 
L 146.319795 27730.688028 
L 146.319795 113.942026 
L 141.159101 113.942026 
z
" clip-path="url(#pc30d87a2c9)" style="fill: #d55e00; stroke: #ffffff; stroke-linejoin: miter"/>
   </g>
   <g id="patch_57">
    <path d="M 173.413436 27730.688028 
L 178.57413 27730.688028 
L 178.57413 273.760112 
L 173.413436 273.760112 
z
" clip-path="url(#pc30d87a2c9)" style="fill: #d55e00; stroke: #ffffff; stroke-linejoin: miter"/>
   </g>
   <g id="patch_58">
    <path d="M 205.667771 27730.688028 
L 210.828465 27730.688028 
L 210.828465 294.322178 
L 205.667771 294.322178 
z
" clip-path="url(#pc30d87a2c9)" style="fill: #d55e00; stroke: #ffffff; stroke-linejoin: miter"/>
   </g>
   <g id="patch_59">
    <path d="M 237.922107 27730.688028 
L 243.0828 27730.688028 
L 243.0828 310.825612 
L 237.922107 310.825612 
z
" clip-path="url(#pc30d87a2c9)" style="fill: #d55e00; stroke: #ffffff; stroke-linejoin: miter"/>
   </g>
   <g id="patch_60">
    <path d="M 270.176442 27730.688028 
L 275.337136 27730.688028 
L 275.337136 310.825612 
L 270.176442 310.825612 
z
" clip-path="url(#pc30d87a2c9)" style="fill: #d55e00; stroke: #ffffff; stroke-linejoin: miter"/>
   </g>
   <g id="patch_61">
    <path d="M 302.430777 27730.688028 
L 307.591471 27730.688028 
L 307.591471 267.67888 
L 302.430777 267.67888 
z
" clip-path="url(#pc30d87a2c9)" style="fill: #d55e00; stroke: #ffffff; stroke-linejoin: miter"/>
   </g>
   <g id="patch_62">
    <path d="M 334.685112 27730.688028 
L 339.845806 27730.688028 
L 339.845806 286.838774 
L 334.685112 286.838774 
z
" clip-path="url(#pc30d87a2c9)" style="fill: #d55e00; stroke: #ffffff; stroke-linejoin: miter"/>
   </g>
   <g id="patch_63">
    <path d="M 366.939448 27730.688028 
L 372.100141 27730.688028 
L 372.100141 310.825612 
L 366.939448 310.825612 
z
" clip-path="url(#pc30d87a2c9)" style="fill: #d55e00; stroke: #ffffff; stroke-linejoin: miter"/>
   </g>
   <g id="patch_64">
    <path d="M 399.193783 27730.688028 
L 404.354477 27730.688028 
L 404.354477 136.574012 
L 399.193783 136.574012 
z
" clip-path="url(#pc30d87a2c9)" style="fill: #d55e00; stroke: #ffffff; stroke-linejoin: miter"/>
   </g>
   <g id="patch_65">
    <path d="M 431.448118 27730.688028 
L 436.608812 27730.688028 
L 436.608812 103.982487 
L 431.448118 103.982487 
z
" clip-path="url(#pc30d87a2c9)" style="fill: #d55e00; stroke: #ffffff; stroke-linejoin: miter"/>
   </g>
   <g id="patch_66">
    <path d="M 463.702453 27730.688028 
L 468.863147 27730.688028 
L 468.863147 297.74695 
L 463.702453 297.74695 
z
" clip-path="url(#pc30d87a2c9)" style="fill: #d55e00; stroke: #ffffff; stroke-linejoin: miter"/>
   </g>
   <g id="patch_67">
    <path d="M 495.956789 27730.688028 
L 501.117482 27730.688028 
L 501.117482 263.228188 
L 495.956789 263.228188 
z
" clip-path="url(#pc30d87a2c9)" style="fill: #d55e00; stroke: #ffffff; stroke-linejoin: miter"/>
   </g>
   <g id="patch_68">
    <path d="M 528.211124 27730.688028 
L 533.371818 27730.688028 
L 533.371818 271.15668 
L 528.211124 271.15668 
z
" clip-path="url(#pc30d87a2c9)" style="fill: #d55e00; stroke: #ffffff; stroke-linejoin: miter"/>
   </g>
   <g id="patch_69">
    <path d="M 560.465459 27730.688028 
L 565.626153 27730.688028 
L 565.626153 302.573895 
L 560.465459 302.573895 
z
" clip-path="url(#pc30d87a2c9)" style="fill: #d55e00; stroke: #ffffff; stroke-linejoin: miter"/>
   </g>
   <g id="patch_70">
    <path d="M 592.719795 27730.688028 
L 597.880488 27730.688028 
L 597.880488 319.07733 
L 592.719795 319.07733 
z
" clip-path="url(#pc30d87a2c9)" style="fill: #d55e00; stroke: #ffffff; stroke-linejoin: miter"/>
   </g>
   <g id="patch_71">
    <path d="M 81.811124 27730.688028 
L 86.971818 27730.688028 
L 86.971818 122.936941 
L 81.811124 122.936941 
z
" clip-path="url(#pc30d87a2c9)" style="fill: #cc78bc; stroke: #ffffff; stroke-linejoin: miter"/>
   </g>
   <g id="patch_72">
    <path d="M 114.065459 27730.688028 
L 119.226153 27730.688028 
L 119.226153 159.264329 
L 114.065459 159.264329 
z
" clip-path="url(#pc30d87a2c9)" style="fill: #cc78bc; stroke: #ffffff; stroke-linejoin: miter"/>
   </g>
   <g id="patch_73">
    <path d="M 146.319795 27730.688028 
L 151.480488 27730.688028 
L 151.480488 274.868326 
L 146.319795 274.868326 
z
" clip-path="url(#pc30d87a2c9)" style="fill: #cc78bc; stroke: #ffffff; stroke-linejoin: miter"/>
   </g>
   <g id="patch_74">
    <path d="M 178.57413 27730.688028 
L 183.734823 27730.688028 
L 183.734823 237.353299 
L 178.57413 237.353299 
z
" clip-path="url(#pc30d87a2c9)" style="fill: #cc78bc; stroke: #ffffff; stroke-linejoin: miter"/>
   </g>
   <g id="patch_75">
    <path d="M 210.828465 27730.688028 
L 215.989159 27730.688028 
L 215.989159 243.164236 
L 210.828465 243.164236 
z
" clip-path="url(#pc30d87a2c9)" style="fill: #cc78bc; stroke: #ffffff; stroke-linejoin: miter"/>
   </g>
   <g id="patch_76">
    <path d="M 243.0828 27730.688028 
L 248.243494 27730.688028 
L 248.243494 27730.688028 
L 243.0828 27730.688028 
z
" clip-path="url(#pc30d87a2c9)" style="fill: #cc78bc; stroke: #ffffff; stroke-linejoin: miter"/>
   </g>
   <g id="patch_77">
    <path d="M 275.337136 27730.688028 
L 280.497829 27730.688028 
L 280.497829 152.09804 
L 275.337136 152.09804 
z
" clip-path="url(#pc30d87a2c9)" style="fill: #cc78bc; stroke: #ffffff; stroke-linejoin: miter"/>
   </g>
   <g id="patch_78">
    <path d="M 307.591471 27730.688028 
L 312.752164 27730.688028 
L 312.752164 143.001013 
L 307.591471 143.001013 
z
" clip-path="url(#pc30d87a2c9)" style="fill: #cc78bc; stroke: #ffffff; stroke-linejoin: miter"/>
   </g>
   <g id="patch_79">
    <path d="M 339.845806 27730.688028 
L 345.0065 27730.688028 
L 345.0065 156.678758 
L 339.845806 156.678758 
z
" clip-path="url(#pc30d87a2c9)" style="fill: #cc78bc; stroke: #ffffff; stroke-linejoin: miter"/>
   </g>
   <g id="patch_80">
    <path d="M 372.100141 27730.688028 
L 377.260835 27730.688028 
L 377.260835 282.279362 
L 372.100141 282.279362 
z
" clip-path="url(#pc30d87a2c9)" style="fill: #cc78bc; stroke: #ffffff; stroke-linejoin: miter"/>
   </g>
   <g id="patch_81">
    <path d="M 404.354477 27730.688028 
L 409.51517 27730.688028 
L 409.51517 166.112134 
L 404.354477 166.112134 
z
" clip-path="url(#pc30d87a2c9)" style="fill: #cc78bc; stroke: #ffffff; stroke-linejoin: miter"/>
   </g>
   <g id="patch_82">
    <path d="M 436.608812 27730.688028 
L 441.769506 27730.688028 
L 441.769506 140.451872 
L 436.608812 140.451872 
z
" clip-path="url(#pc30d87a2c9)" style="fill: #cc78bc; stroke: #ffffff; stroke-linejoin: miter"/>
   </g>
   <g id="patch_83">
    <path d="M 468.863147 27730.688028 
L 474.023841 27730.688028 
L 474.023841 182.413344 
L 468.863147 182.413344 
z
" clip-path="url(#pc30d87a2c9)" style="fill: #cc78bc; stroke: #ffffff; stroke-linejoin: miter"/>
   </g>
   <g id="patch_84">
    <path d="M 501.117482 27730.688028 
L 506.278176 27730.688028 
L 506.278176 251.175446 
L 501.117482 251.175446 
z
" clip-path="url(#pc30d87a2c9)" style="fill: #cc78bc; stroke: #ffffff; stroke-linejoin: miter"/>
   </g>
   <g id="patch_85">
    <path d="M 533.371818 27730.688028 
L 538.532511 27730.688028 
L 538.532511 260.948982 
L 533.371818 260.948982 
z
" clip-path="url(#pc30d87a2c9)" style="fill: #cc78bc; stroke: #ffffff; stroke-linejoin: miter"/>
   </g>
   <g id="patch_86">
    <path d="M 565.626153 27730.688028 
L 570.786847 27730.688028 
L 570.786847 175.407317 
L 565.626153 175.407317 
z
" clip-path="url(#pc30d87a2c9)" style="fill: #cc78bc; stroke: #ffffff; stroke-linejoin: miter"/>
   </g>
   <g id="patch_87">
    <path d="M 597.880488 27730.688028 
L 603.041182 27730.688028 
L 603.041182 173.549743 
L 597.880488 173.549743 
z
" clip-path="url(#pc30d87a2c9)" style="fill: #cc78bc; stroke: #ffffff; stroke-linejoin: miter"/>
   </g>
   <g id="patch_88">
    <path d="M 53.104766 331.431875 
L 53.104766 59.631875 
" style="fill: none; stroke: #ffffff; stroke-width: 1.25; stroke-linejoin: miter; stroke-linecap: square"/>
   </g>
   <g id="patch_89">
    <path d="M 611.104766 331.431875 
L 611.104766 59.631875 
" style="fill: none; stroke: #ffffff; stroke-width: 1.25; stroke-linejoin: miter; stroke-linecap: square"/>
   </g>
   <g id="patch_90">
    <path d="M 53.104766 331.431875 
L 611.104766 331.431875 
" style="fill: none; stroke: #ffffff; stroke-width: 1.25; stroke-linejoin: miter; stroke-linecap: square"/>
   </g>
   <g id="patch_91">
    <path d="M 53.104766 59.631875 
L 611.104766 59.631875 
" style="fill: none; stroke: #ffffff; stroke-width: 1.25; stroke-linejoin: miter; stroke-linecap: square"/>
   </g>
   <g id="text_25">
    <!-- Rpartition des labels dans la dataset CALIBRATION en fonction du mois/semaine -->
    <g style="fill: #262626" transform="translate(88.222578 53.631875)scale(0.12 -0.12)">
     <defs>
      <path id="DejaVuSans-52" d="M 2841 2188 
Q 3044 2119 3236 1894 
Q 3428 1669 3622 1275 
L 4263 0 
L 3584 0 
L 2988 1197 
Q 2756 1666 2539 1819 
Q 2322 1972 1947 1972 
L 1259 1972 
L 1259 0 
L 628 0 
L 628 4666 
L 2053 4666 
Q 2853 4666 3247 4331 
Q 3641 3997 3641 3322 
Q 3641 2881 3436 2590 
Q 3231 2300 2841 2188 
z
M 1259 4147 
L 1259 2491 
L 2053 2491 
Q 2509 2491 2742 2702 
Q 2975 2913 2975 3322 
Q 2975 3731 2742 3939 
Q 2509 4147 2053 4147 
L 1259 4147 
z
" transform="scale(0.015625)"/>
      <path id="DejaVuSans-e9" d="M 3597 1894 
L 3597 1613 
L 953 1613 
Q 991 1019 1311 708 
Q 1631 397 2203 397 
Q 2534 397 2845 478 
Q 3156 559 3463 722 
L 3463 178 
Q 3153 47 2828 -22 
Q 2503 -91 2169 -91 
Q 1331 -91 842 396 
Q 353 884 353 1716 
Q 353 2575 817 3079 
Q 1281 3584 2069 3584 
Q 2775 3584 3186 3129 
Q 3597 2675 3597 1894 
z
M 3022 2063 
Q 3016 2534 2758 2815 
Q 2500 3097 2075 3097 
Q 1594 3097 1305 2825 
Q 1016 2553 972 2059 
L 3022 2063 
z
M 2466 5119 
L 3088 5119 
L 2070 3944 
L 1591 3944 
L 2466 5119 
z
" transform="scale(0.015625)"/>
      <path id="DejaVuSans-43" d="M 4122 4306 
L 4122 3641 
Q 3803 3938 3442 4084 
Q 3081 4231 2675 4231 
Q 1875 4231 1450 3742 
Q 1025 3253 1025 2328 
Q 1025 1406 1450 917 
Q 1875 428 2675 428 
Q 3081 428 3442 575 
Q 3803 722 4122 1019 
L 4122 359 
Q 3791 134 3420 21 
Q 3050 -91 2638 -91 
Q 1578 -91 968 557 
Q 359 1206 359 2328 
Q 359 3453 968 4101 
Q 1578 4750 2638 4750 
Q 3056 4750 3426 4639 
Q 3797 4528 4122 4306 
z
" transform="scale(0.015625)"/>
      <path id="DejaVuSans-41" d="M 2188 4044 
L 1331 1722 
L 3047 1722 
L 2188 4044 
z
M 1831 4666 
L 2547 4666 
L 4325 0 
L 3669 0 
L 3244 1197 
L 1141 1197 
L 716 0 
L 50 0 
L 1831 4666 
z
" transform="scale(0.015625)"/>
      <path id="DejaVuSans-4c" d="M 628 4666 
L 1259 4666 
L 1259 531 
L 3531 531 
L 3531 0 
L 628 0 
L 628 4666 
z
" transform="scale(0.015625)"/>
      <path id="DejaVuSans-49" d="M 628 4666 
L 1259 4666 
L 1259 0 
L 628 0 
L 628 4666 
z
" transform="scale(0.015625)"/>
      <path id="DejaVuSans-42" d="M 1259 2228 
L 1259 519 
L 2272 519 
Q 2781 519 3026 730 
Q 3272 941 3272 1375 
Q 3272 1813 3026 2020 
Q 2781 2228 2272 2228 
L 1259 2228 
z
M 1259 4147 
L 1259 2741 
L 2194 2741 
Q 2656 2741 2882 2914 
Q 3109 3088 3109 3444 
Q 3109 3797 2882 3972 
Q 2656 4147 2194 4147 
L 1259 4147 
z
M 628 4666 
L 2241 4666 
Q 2963 4666 3353 4366 
Q 3744 4066 3744 3513 
Q 3744 3084 3544 2831 
Q 3344 2578 2956 2516 
Q 3422 2416 3680 2098 
Q 3938 1781 3938 1306 
Q 3938 681 3513 340 
Q 3088 0 2303 0 
L 628 0 
L 628 4666 
z
" transform="scale(0.015625)"/>
      <path id="DejaVuSans-54" d="M -19 4666 
L 3928 4666 
L 3928 4134 
L 2272 4134 
L 2272 0 
L 1638 0 
L 1638 4134 
L -19 4134 
L -19 4666 
z
" transform="scale(0.015625)"/>
      <path id="DejaVuSans-4f" d="M 2522 4238 
Q 1834 4238 1429 3725 
Q 1025 3213 1025 2328 
Q 1025 1447 1429 934 
Q 1834 422 2522 422 
Q 3209 422 3611 934 
Q 4013 1447 4013 2328 
Q 4013 3213 3611 3725 
Q 3209 4238 2522 4238 
z
M 2522 4750 
Q 3503 4750 4090 4092 
Q 4678 3434 4678 2328 
Q 4678 1225 4090 567 
Q 3503 -91 2522 -91 
Q 1538 -91 948 565 
Q 359 1222 359 2328 
Q 359 3434 948 4092 
Q 1538 4750 2522 4750 
z
" transform="scale(0.015625)"/>
      <path id="DejaVuSans-66" d="M 2375 4863 
L 2375 4384 
L 1825 4384 
Q 1516 4384 1395 4259 
Q 1275 4134 1275 3809 
L 1275 3500 
L 2222 3500 
L 2222 3053 
L 1275 3053 
L 1275 0 
L 697 0 
L 697 3053 
L 147 3053 
L 147 3500 
L 697 3500 
L 697 3744 
Q 697 4328 969 4595 
Q 1241 4863 1831 4863 
L 2375 4863 
z
" transform="scale(0.015625)"/>
     </defs>
     <use xlink:href="#DejaVuSans-52"/>
     <use xlink:href="#DejaVuSans-e9" x="64.982422"/>
     <use xlink:href="#DejaVuSans-70" x="126.505859"/>
     <use xlink:href="#DejaVuSans-61" x="189.982422"/>
     <use xlink:href="#DejaVuSans-72" x="251.261719"/>
     <use xlink:href="#DejaVuSans-74" x="292.375"/>
     <use xlink:href="#DejaVuSans-69" x="331.583984"/>
     <use xlink:href="#DejaVuSans-74" x="359.367188"/>
     <use xlink:href="#DejaVuSans-69" x="398.576172"/>
     <use xlink:href="#DejaVuSans-6f" x="426.359375"/>
     <use xlink:href="#DejaVuSans-6e" x="487.541016"/>
     <use xlink:href="#DejaVuSans-20" x="550.919922"/>
     <use xlink:href="#DejaVuSans-64" x="582.707031"/>
     <use xlink:href="#DejaVuSans-65" x="646.183594"/>
     <use xlink:href="#DejaVuSans-73" x="707.707031"/>
     <use xlink:href="#DejaVuSans-20" x="759.806641"/>
     <use xlink:href="#DejaVuSans-6c" x="791.59375"/>
     <use xlink:href="#DejaVuSans-61" x="819.376953"/>
     <use xlink:href="#DejaVuSans-62" x="880.65625"/>
     <use xlink:href="#DejaVuSans-65" x="944.132812"/>
     <use xlink:href="#DejaVuSans-6c" x="1005.65625"/>
     <use xlink:href="#DejaVuSans-73" x="1033.439453"/>
     <use xlink:href="#DejaVuSans-20" x="1085.539062"/>
     <use xlink:href="#DejaVuSans-64" x="1117.326172"/>
     <use xlink:href="#DejaVuSans-61" x="1180.802734"/>
     <use xlink:href="#DejaVuSans-6e" x="1242.082031"/>
     <use xlink:href="#DejaVuSans-73" x="1305.460938"/>
     <use xlink:href="#DejaVuSans-20" x="1357.560547"/>
     <use xlink:href="#DejaVuSans-6c" x="1389.347656"/>
     <use xlink:href="#DejaVuSans-61" x="1417.130859"/>
     <use xlink:href="#DejaVuSans-20" x="1478.410156"/>
     <use xlink:href="#DejaVuSans-64" x="1510.197266"/>
     <use xlink:href="#DejaVuSans-61" x="1573.673828"/>
     <use xlink:href="#DejaVuSans-74" x="1634.953125"/>
     <use xlink:href="#DejaVuSans-61" x="1674.162109"/>
     <use xlink:href="#DejaVuSans-73" x="1735.441406"/>
     <use xlink:href="#DejaVuSans-65" x="1787.541016"/>
     <use xlink:href="#DejaVuSans-74" x="1849.064453"/>
     <use xlink:href="#DejaVuSans-20" x="1888.273438"/>
     <use xlink:href="#DejaVuSans-43" x="1920.060547"/>
     <use xlink:href="#DejaVuSans-41" x="1989.884766"/>
     <use xlink:href="#DejaVuSans-4c" x="2058.292969"/>
     <use xlink:href="#DejaVuSans-49" x="2114.005859"/>
     <use xlink:href="#DejaVuSans-42" x="2143.498047"/>
     <use xlink:href="#DejaVuSans-52" x="2212.101562"/>
     <use xlink:href="#DejaVuSans-41" x="2277.583984"/>
     <use xlink:href="#DejaVuSans-54" x="2338.242188"/>
     <use xlink:href="#DejaVuSans-49" x="2399.326172"/>
     <use xlink:href="#DejaVuSans-4f" x="2428.818359"/>
     <use xlink:href="#DejaVuSans-4e" x="2507.529297"/>
     <use xlink:href="#DejaVuSans-20" x="2582.333984"/>
     <use xlink:href="#DejaVuSans-65" x="2614.121094"/>
     <use xlink:href="#DejaVuSans-6e" x="2675.644531"/>
     <use xlink:href="#DejaVuSans-20" x="2739.023438"/>
     <use xlink:href="#DejaVuSans-66" x="2770.810547"/>
     <use xlink:href="#DejaVuSans-6f" x="2806.015625"/>
     <use xlink:href="#DejaVuSans-6e" x="2867.197266"/>
     <use xlink:href="#DejaVuSans-63" x="2930.576172"/>
     <use xlink:href="#DejaVuSans-74" x="2985.556641"/>
     <use xlink:href="#DejaVuSans-69" x="3024.765625"/>
     <use xlink:href="#DejaVuSans-6f" x="3052.548828"/>
     <use xlink:href="#DejaVuSans-6e" x="3113.730469"/>
     <use xlink:href="#DejaVuSans-20" x="3177.109375"/>
     <use xlink:href="#DejaVuSans-64" x="3208.896484"/>
     <use xlink:href="#DejaVuSans-75" x="3272.373047"/>
     <use xlink:href="#DejaVuSans-20" x="3335.751953"/>
     <use xlink:href="#DejaVuSans-6d" x="3367.539062"/>
     <use xlink:href="#DejaVuSans-6f" x="3464.951172"/>
     <use xlink:href="#DejaVuSans-69" x="3526.132812"/>
     <use xlink:href="#DejaVuSans-73" x="3553.916016"/>
     <use xlink:href="#DejaVuSans-2f" x="3606.015625"/>
     <use xlink:href="#DejaVuSans-73" x="3639.707031"/>
     <use xlink:href="#DejaVuSans-65" x="3691.806641"/>
     <use xlink:href="#DejaVuSans-6d" x="3753.330078"/>
     <use xlink:href="#DejaVuSans-61" x="3850.742188"/>
     <use xlink:href="#DejaVuSans-69" x="3912.021484"/>
     <use xlink:href="#DejaVuSans-6e" x="3939.804688"/>
     <use xlink:href="#DejaVuSans-65" x="4003.183594"/>
    </g>
   </g>
   <g id="legend_1">
    <g id="patch_92">
     <path d="M 11.6 19.958281 
L 33.6 19.958281 
L 33.6 12.258281 
L 11.6 12.258281 
z
" style="fill: #0173b2; stroke: #ffffff; stroke-linejoin: miter"/>
    </g>
    <g id="text_26">
     <!-- &lt;INVALID_LENGTH&gt; -->
     <g style="fill: #262626" transform="translate(42.4 19.958281)scale(0.11 -0.11)">
      <defs>
       <path id="DejaVuSans-3c" d="M 4684 3150 
L 1459 2003 
L 4684 863 
L 4684 294 
L 678 1747 
L 678 2266 
L 4684 3719 
L 4684 3150 
z
" transform="scale(0.015625)"/>
       <path id="DejaVuSans-56" d="M 1831 0 
L 50 4666 
L 709 4666 
L 2188 738 
L 3669 4666 
L 4325 4666 
L 2547 0 
L 1831 0 
z
" transform="scale(0.015625)"/>
       <path id="DejaVuSans-44" d="M 1259 4147 
L 1259 519 
L 2022 519 
Q 2988 519 3436 956 
Q 3884 1394 3884 2338 
Q 3884 3275 3436 3711 
Q 2988 4147 2022 4147 
L 1259 4147 
z
M 628 4666 
L 1925 4666 
Q 3281 4666 3915 4102 
Q 4550 3538 4550 2338 
Q 4550 1131 3912 565 
Q 3275 0 1925 0 
L 628 0 
L 628 4666 
z
" transform="scale(0.015625)"/>
       <path id="DejaVuSans-5f" d="M 3263 -1063 
L 3263 -1509 
L -63 -1509 
L -63 -1063 
L 3263 -1063 
z
" transform="scale(0.015625)"/>
       <path id="DejaVuSans-45" d="M 628 4666 
L 3578 4666 
L 3578 4134 
L 1259 4134 
L 1259 2753 
L 3481 2753 
L 3481 2222 
L 1259 2222 
L 1259 531 
L 3634 531 
L 3634 0 
L 628 0 
L 628 4666 
z
" transform="scale(0.015625)"/>
       <path id="DejaVuSans-47" d="M 3809 666 
L 3809 1919 
L 2778 1919 
L 2778 2438 
L 4434 2438 
L 4434 434 
Q 4069 175 3628 42 
Q 3188 -91 2688 -91 
Q 1594 -91 976 548 
Q 359 1188 359 2328 
Q 359 3472 976 4111 
Q 1594 4750 2688 4750 
Q 3144 4750 3555 4637 
Q 3966 4525 4313 4306 
L 4313 3634 
Q 3963 3931 3569 4081 
Q 3175 4231 2741 4231 
Q 1884 4231 1454 3753 
Q 1025 3275 1025 2328 
Q 1025 1384 1454 906 
Q 1884 428 2741 428 
Q 3075 428 3337 486 
Q 3600 544 3809 666 
z
" transform="scale(0.015625)"/>
       <path id="DejaVuSans-48" d="M 628 4666 
L 1259 4666 
L 1259 2753 
L 3553 2753 
L 3553 4666 
L 4184 4666 
L 4184 0 
L 3553 0 
L 3553 2222 
L 1259 2222 
L 1259 0 
L 628 0 
L 628 4666 
z
" transform="scale(0.015625)"/>
       <path id="DejaVuSans-3e" d="M 678 3150 
L 678 3719 
L 4684 2266 
L 4684 1747 
L 678 294 
L 678 863 
L 3897 2003 
L 678 3150 
z
" transform="scale(0.015625)"/>
      </defs>
      <use xlink:href="#DejaVuSans-3c"/>
      <use xlink:href="#DejaVuSans-49" x="83.789062"/>
      <use xlink:href="#DejaVuSans-4e" x="113.28125"/>
      <use xlink:href="#DejaVuSans-56" x="188.085938"/>
      <use xlink:href="#DejaVuSans-41" x="250.119141"/>
      <use xlink:href="#DejaVuSans-4c" x="318.527344"/>
      <use xlink:href="#DejaVuSans-49" x="374.240234"/>
      <use xlink:href="#DejaVuSans-44" x="403.732422"/>
      <use xlink:href="#DejaVuSans-5f" x="480.734375"/>
      <use xlink:href="#DejaVuSans-4c" x="530.734375"/>
      <use xlink:href="#DejaVuSans-45" x="586.447266"/>
      <use xlink:href="#DejaVuSans-4e" x="649.630859"/>
      <use xlink:href="#DejaVuSans-47" x="724.435547"/>
      <use xlink:href="#DejaVuSans-54" x="798.300781"/>
      <use xlink:href="#DejaVuSans-48" x="859.384766"/>
      <use xlink:href="#DejaVuSans-3e" x="934.580078"/>
     </g>
    </g>
    <g id="patch_93">
     <path d="M 176.426406 19.958281 
L 198.426406 19.958281 
L 198.426406 12.258281 
L 176.426406 12.258281 
z
" style="fill: #de8f05; stroke: #ffffff; stroke-linejoin: miter"/>
    </g>
    <g id="text_27">
     <!-- background -->
     <g style="fill: #262626" transform="translate(207.226406 19.958281)scale(0.11 -0.11)">
      <defs>
       <path id="DejaVuSans-67" d="M 2906 1791 
Q 2906 2416 2648 2759 
Q 2391 3103 1925 3103 
Q 1463 3103 1205 2759 
Q 947 2416 947 1791 
Q 947 1169 1205 825 
Q 1463 481 1925 481 
Q 2391 481 2648 825 
Q 2906 1169 2906 1791 
z
M 3481 434 
Q 3481 -459 3084 -895 
Q 2688 -1331 1869 -1331 
Q 1566 -1331 1297 -1286 
Q 1028 -1241 775 -1147 
L 775 -588 
Q 1028 -725 1275 -790 
Q 1522 -856 1778 -856 
Q 2344 -856 2625 -561 
Q 2906 -266 2906 331 
L 2906 616 
Q 2728 306 2450 153 
Q 2172 0 1784 0 
Q 1141 0 747 490 
Q 353 981 353 1791 
Q 353 2603 747 3093 
Q 1141 3584 1784 3584 
Q 2172 3584 2450 3431 
Q 2728 3278 2906 2969 
L 2906 3500 
L 3481 3500 
L 3481 434 
z
" transform="scale(0.015625)"/>
      </defs>
      <use xlink:href="#DejaVuSans-62"/>
      <use xlink:href="#DejaVuSans-61" x="63.476562"/>
      <use xlink:href="#DejaVuSans-63" x="124.755859"/>
      <use xlink:href="#DejaVuSans-6b" x="179.736328"/>
      <use xlink:href="#DejaVuSans-67" x="237.646484"/>
      <use xlink:href="#DejaVuSans-72" x="301.123047"/>
      <use xlink:href="#DejaVuSans-6f" x="339.986328"/>
      <use xlink:href="#DejaVuSans-75" x="401.167969"/>
      <use xlink:href="#DejaVuSans-6e" x="464.546875"/>
      <use xlink:href="#DejaVuSans-64" x="527.925781"/>
     </g>
    </g>
    <g id="patch_94">
     <path d="M 294.282812 19.958281 
L 316.282812 19.958281 
L 316.282812 12.258281 
L 294.282812 12.258281 
z
" style="fill: #029e73; stroke: #ffffff; stroke-linejoin: miter"/>
    </g>
    <g id="text_28">
     <!-- blacklist -->
     <g style="fill: #262626" transform="translate(325.082812 19.958281)scale(0.11 -0.11)">
      <use xlink:href="#DejaVuSans-62"/>
      <use xlink:href="#DejaVuSans-6c" x="63.476562"/>
      <use xlink:href="#DejaVuSans-61" x="91.259766"/>
      <use xlink:href="#DejaVuSans-63" x="152.539062"/>
      <use xlink:href="#DejaVuSans-6b" x="207.519531"/>
      <use xlink:href="#DejaVuSans-6c" x="265.429688"/>
      <use xlink:href="#DejaVuSans-69" x="293.212891"/>
      <use xlink:href="#DejaVuSans-73" x="320.996094"/>
      <use xlink:href="#DejaVuSans-74" x="373.095703"/>
     </g>
    </g>
    <g id="patch_95">
     <path d="M 392.435469 19.958281 
L 414.435469 19.958281 
L 414.435469 12.258281 
L 392.435469 12.258281 
z
" style="fill: #d55e00; stroke: #ffffff; stroke-linejoin: miter"/>
    </g>
    <g id="text_29">
     <!-- anomaly-sshscan -->
     <g style="fill: #262626" transform="translate(423.235469 19.958281)scale(0.11 -0.11)">
      <use xlink:href="#DejaVuSans-61"/>
      <use xlink:href="#DejaVuSans-6e" x="61.279297"/>
      <use xlink:href="#DejaVuSans-6f" x="124.658203"/>
      <use xlink:href="#DejaVuSans-6d" x="185.839844"/>
      <use xlink:href="#DejaVuSans-61" x="283.251953"/>
      <use xlink:href="#DejaVuSans-6c" x="344.53125"/>
      <use xlink:href="#DejaVuSans-79" x="372.314453"/>
      <use xlink:href="#DejaVuSans-2d" x="429.744141"/>
      <use xlink:href="#DejaVuSans-73" x="465.828125"/>
      <use xlink:href="#DejaVuSans-73" x="517.927734"/>
      <use xlink:href="#DejaVuSans-68" x="570.027344"/>
      <use xlink:href="#DejaVuSans-73" x="633.40625"/>
      <use xlink:href="#DejaVuSans-63" x="685.505859"/>
      <use xlink:href="#DejaVuSans-61" x="740.486328"/>
      <use xlink:href="#DejaVuSans-6e" x="801.765625"/>
     </g>
    </g>
    <g id="patch_96">
     <path d="M 540.399219 19.958281 
L 562.399219 19.958281 
L 562.399219 12.258281 
L 540.399219 12.258281 
z
" style="fill: #cc78bc; stroke: #ffffff; stroke-linejoin: miter"/>
    </g>
    <g id="text_30">
     <!-- anomaly-spam -->
     <g style="fill: #262626" transform="translate(571.199219 19.958281)scale(0.11 -0.11)">
      <use xlink:href="#DejaVuSans-61"/>
      <use xlink:href="#DejaVuSans-6e" x="61.279297"/>
      <use xlink:href="#DejaVuSans-6f" x="124.658203"/>
      <use xlink:href="#DejaVuSans-6d" x="185.839844"/>
      <use xlink:href="#DejaVuSans-61" x="283.251953"/>
      <use xlink:href="#DejaVuSans-6c" x="344.53125"/>
      <use xlink:href="#DejaVuSans-79" x="372.314453"/>
      <use xlink:href="#DejaVuSans-2d" x="429.744141"/>
      <use xlink:href="#DejaVuSans-73" x="465.828125"/>
      <use xlink:href="#DejaVuSans-70" x="517.927734"/>
      <use xlink:href="#DejaVuSans-61" x="581.404297"/>
      <use xlink:href="#DejaVuSans-6d" x="642.683594"/>
     </g>
    </g>
   </g>
  </g>
 </g>
 <defs>
  <clipPath id="pc30d87a2c9">
   <rect x="53.104766" y="59.631875" width="558" height="271.8"/>
  </clipPath>
 </defs>
</svg>
